RobotoFlex-opsz144-wght1000-wdth151-slnt-1.ufo
<glyph name="quotedbl" format="2">
  <advance width="1204"/>
  <unicode hex="0022"/>
  <outline>
    <contour>
      <point x="80.0" y="755.0" type="line"/>
      <point x="145.0" y="1192.0" type="line"/>
      <point x="199.0" y="1456.0" type="line"/>
      <point x="709.0" y="1456.0" type="line"/>
      <point x="655.0" y="1192.0" type="line"/>
      <point x="556.0" y="755.0" type="line"/>
    </contour>
    <contour>
      <point x="649.0" y="755.0" type="line"/>
      <point x="714.0" y="1192.0" type="line"/>
      <point x="768.0" y="1456.0" type="line"/>
      <point x="1279.0" y="1456.0" type="line"/>
      <point x="1225.0" y="1192.0" type="line"/>
      <point x="1125.0" y="755.0" type="line"/>
    </contour>
  </outline>
</glyph>
<glyph name="colon" format="2">
  <advance width="619"/>
  <unicode hex="003A"/>
  <outline>
    <contour>
      <point x="-44" y="242.0" type="qcurve" smooth="yes"/>
      <point x="-44" y="349.0"/>
      <point x="106" y="492.0"/>
      <point x="240" y="492.0" type="qcurve" smooth="yes"/>
      <point x="374" y="492.0"/>
      <point x="518" y="349.0"/>
      <point x="517" y="242.0" type="qcurve" smooth="yes"/>
      <point x="517" y="131.0"/>
      <point x="367" y="-12.0"/>
      <point x="233" y="-12.0" type="qcurve" smooth="yes"/>
      <point x="100" y="-12.0"/>
      <point x="-45" y="136.0"/>
    </contour>
    <contour>
      <point x="76" y="804.0" type="qcurve" smooth="yes"/>
      <point x="81" y="909.0"/>
      <point x="235" y="1053.0"/>
      <point x="369" y="1053.0" type="qcurve" smooth="yes"/>
      <point x="504" y="1053.0"/>
      <point x="642" y="909.0"/>
      <point x="638" y="802.0" type="qcurve" smooth="yes"/>
      <point x="633" y="691.0"/>
      <point x="479" y="548.0"/>
      <point x="344" y="548.0" type="qcurve" smooth="yes"/>
      <point x="211" y="548.0"/>
      <point x="71" y="696.0"/>
    </contour>
  </outline>
</glyph>
<glyph name="at" format="2">
  <advance width="2237"/>
  <unicode hex="0040"/>
  <outline>
    <contour>
      <point x="528" y="427" type="qcurve" smooth="yes"/>
      <point x="574" y="706"/>
      <point x="986" y="1052"/>
      <point x="1234.0" y="1052.0" type="qcurve" smooth="yes"/>
      <point x="1340" y="1052.0"/>
      <point x="1470.0" y="983.0"/>
      <point x="1495.0" y="946.0" type="qcurve"/>
      <point x="1803.0" y="946.0" type="line"/>
      <point x="1586.0" y="350.0" type="line" smooth="yes"/>
      <point x="1569" y="302"/>
      <point x="1566.0" y="276.0"/>
      <point x="1593.0" y="275.0" type="qcurve" smooth="yes"/>
      <point x="1656" y="273"/>
      <point x="1810" y="435.0"/>
      <point x="1850" y="599.0" type="qcurve" smooth="yes"/>
      <point x="1898" y="854.0"/>
      <point x="1601.0" y="1128.0"/>
      <point x="1291.0" y="1128.0" type="qcurve" smooth="yes"/>
      <point x="947.0" y="1128.0"/>
      <point x="457" y="740"/>
      <point x="409" y="433" type="qcurve" smooth="yes"/>
      <point x="370" y="183"/>
      <point x="575.0" y="-100.0"/>
      <point x="831.0" y="-100.0" type="qcurve" smooth="yes"/>
      <point x="964.0" y="-100.0"/>
      <point x="1156.0" y="-55.0"/>
      <point x="1224.0" y="-20.0" type="qcurve"/>
      <point x="1196.0" y="-366.0" type="line"/>
      <point x="1124.0" y="-408.0"/>
      <point x="936.0" y="-446.0"/>
      <point x="803.0" y="-446.0" type="qcurve" smooth="yes"/>
      <point x="362.0" y="-446.0"/>
      <point x="-34.0" y="40.0"/>
      <point x="40.0" y="460.0" type="qcurve" smooth="yes"/>
      <point x="114.0" y="880.0"/>
      <point x="790.0" y="1486.0"/>
      <point x="1318.0" y="1486.0" type="qcurve" smooth="yes"/>
      <point x="1787.0" y="1486.0"/>
      <point x="2244.0" y="980.0"/>
      <point x="2183.0" y="630.0" type="qcurve" smooth="yes"/>
      <point x="2132.0" y="340.0"/>
      <point x="1786.0" y="0.0"/>
      <point x="1507.0" y="0.0" type="qcurve" smooth="yes"/>
      <point x="1340.0" y="0.0"/>
      <point x="1181.0" y="89.0"/>
      <point x="1147.0" y="180.0" type="qcurve"/>
      <point x="1087.0" y="93.0"/>
      <point x="912" y="1"/>
      <point x="828.0" y="1.0" type="qcurve" smooth="yes"/>
      <point x="639.0" y="1"/>
      <point x="493.0" y="214"/>
    </contour>
    <contour>
      <point x="1023.0" y="427.0" type="qcurve" smooth="yes"/>
      <point x="1004" y="364"/>
      <point x="1020.0" y="329.0"/>
      <point x="1043.0" y="329.0" type="qcurve" smooth="yes"/>
      <point x="1071.0" y="329.0"/>
      <point x="1121.0" y="366.0"/>
      <point x="1154.0" y="415.0" type="qcurve" smooth="yes"/>
      <point x="1297.0" y="742.0" type="line"/>
      <point x="1287.0" y="752.0"/>
      <point x="1259.0" y="760.0"/>
      <point x="1244.0" y="760.0" type="qcurve" smooth="yes"/>
      <point x="1195.0" y="760.0"/>
      <point x="1068.0" y="579.0"/>
    </contour>
  </outline>
</glyph>
<glyph name="A" format="2">
  <advance width="1984"/>
  <unicode hex="0041"/>
  <anchor x="992.0" y="0" name="bottom"/>
  <anchor x="1664.0" y="0" name="ogonek"/>
  <anchor x="992.0" y="1456" name="top"/>
  <outline>
    <contour>
      <point x="-140.0" y="0.0" type="line"/>
      <point x="851.0" y="1465.0" type="line"/>
      <point x="1461.0" y="1465.0" type="line"/>
      <point x="1924.0" y="0.0" type="line"/>
      <point x="1243.0" y="0.0" type="line"/>
      <point x="1049.0" y="725" type="line" smooth="yes"/>
      <point x="1042" y="750"/>
      <point x="1034.0" y="785.0"/>
      <point x="1032.0" y="797.0" type="qcurve"/>
      <point x="1031.0" y="797.0" type="line"/>
      <point x="1024.0" y="786.0"/>
      <point x="1004" y="755"/>
      <point x="985.0" y="725" type="qcurve" smooth="yes"/>
      <point x="518.0" y="0.0" type="line"/>
    </contour>
    <contour>
      <point x="386.0" y="198.0" type="line"/>
      <point x="579.0" y="570.0" type="line"/>
      <point x="1421.0" y="570.0" type="line"/>
      <point x="1548.0" y="198.0" type="line"/>
    </contour>
  </outline>
</glyph>
<glyph name="B" format="2">
  <advance width="1772"/>
  <unicode hex="0042"/>
  <anchor x="886.0" y="0" name="bottom"/>
  <anchor x="886.0" y="1456" name="top"/>
  <outline>
    <contour>
      <point x="6.0" y="0.0" type="line"/>
      <point x="263.0" y="1456.0" type="line"/>
      <point x="1331.0" y="1456.0" type="line" smooth="yes"/>
      <point x="1569.0" y="1456.0"/>
      <point x="1761.0" y="1251.0"/>
      <point x="1742" y="1091" type="qcurve" smooth="yes"/>
      <point x="1725" y="948"/>
      <point x="1551.0" y="797.0"/>
      <point x="1462.0" y="767.0" type="qcurve"/>
      <point x="1461.0" y="763.0" type="line"/>
      <point x="1585" y="751"/>
      <point x="1734.0" y="569.0"/>
      <point x="1715" y="405" type="qcurve" smooth="yes"/>
      <point x="1692" y="210"/>
      <point x="1330.0" y="0.0"/>
      <point x="1086.0" y="0.0" type="qcurve" smooth="yes"/>
    </contour>
    <contour>
      <point x="652.0" y="372.0" type="line"/>
      <point x="957" y="374" type="line" smooth="yes"/>
      <point x="1030" y="374"/>
      <point x="1100" y="427"/>
      <point x="1110" y="476" type="qcurve" smooth="yes"/>
      <point x="1119" y="523"/>
      <point x="1061" y="583"/>
      <point x="998" y="583" type="qcurve" smooth="yes"/>
      <point x="690.0" y="583.0" type="line"/>
    </contour>
    <contour>
      <point x="738.0" y="855.0" type="line"/>
      <point x="1063" y="857" type="line" smooth="yes"/>
      <point x="1113" y="857"/>
      <point x="1175" y="909"/>
      <point x="1185" y="959" type="qcurve" smooth="yes"/>
      <point x="1194" y="1009"/>
      <point x="1138" y="1061"/>
      <point x="1088" y="1061.0" type="qcurve" smooth="yes"/>
      <point x="774.0" y="1061.0" type="line"/>
    </contour>
  </outline>
</glyph>
<glyph name="E" format="2">
  <advance width="1741"/>
  <unicode hex="0045"/>
  <anchor x="870.5" y="0" name="bottom"/>
  <anchor x="1504.0" y="0" name="ogonek"/>
  <anchor x="870.5" y="1456" name="top"/>
  <outline>
    <contour>
      <point x="6.0" y="0.0" type="line"/>
      <point x="263.0" y="1456.0" type="line"/>
      <point x="1741.0" y="1456.0" type="line"/>
      <point x="1673.0" y="1006.0" type="line"/>
      <point x="775.0" y="1006.0" type="line"/>
      <point x="759.0" y="936.0" type="line"/>
      <point x="1594.0" y="936.0" type="line"/>
      <point x="1519.0" y="506.0" type="line"/>
      <point x="682.0" y="506.0" type="line"/>
      <point x="666.0" y="430.0" type="line"/>
      <point x="1580.0" y="430.0" type="line"/>
      <point x="1504.0" y="0.0" type="line"/>
    </contour>
  </outline>
</glyph>
<glyph name="F" format="2">
  <advance width="1556"/>
  <unicode hex="0046"/>
  <anchor x="778.0" y="0" name="bottom"/>
  <anchor x="778.0" y="1456" name="top"/>
  <outline>
    <contour>
      <point x="6.0" y="0.0" type="line"/>
      <point x="263.0" y="1456.0" type="line"/>
      <point x="1669.0" y="1456.0" type="line"/>
      <point x="1593.0" y="1007.0" type="line"/>
      <point x="795" y="1007.0" type="line"/>
      <point x="775" y="912.0" type="line"/>
      <point x="1535.0" y="912.0" type="line"/>
      <point x="1459.0" y="474.0" type="line"/>
      <point x="701.0" y="474.0" type="line"/>
      <point x="618.0" y="0.0" type="line"/>
    </contour>
  </outline>
</glyph>
<glyph name="I" format="2">
  <advance width="873"/>
  <unicode hex="0049"/>
  <anchor x="436.5" y="0" name="bottom"/>
  <anchor x="424" y="0" name="ogonek"/>
  <anchor x="436.5" y="1456" name="top"/>
  <outline>
    <contour>
      <point x="6" y="0" type="line"/>
      <point x="262" y="1456" type="line"/>
      <point x="867" y="1456" type="line"/>
      <point x="610" y="0" type="line"/>
    </contour>
  </outline>
</glyph>
<glyph name="J" format="2">
  <advance width="1630"/>
  <unicode hex="004A"/>
  <anchor x="815.0" y="0" name="bottom"/>
  <anchor x="1215.0" y="1456" name="top"/>
  <outline>
    <contour>
      <point x="-5.0" y="535.0" type="qcurve" smooth="yes"/>
      <point x="16.0" y="677.0" type="line"/>
      <point x="508.0" y="677.0" type="line"/>
      <point x="499.0" y="579.0" type="line" smooth="yes"/>
      <point x="487" y="447"/>
      <point x="583.0" y="354.0"/>
      <point x="672" y="354.0" type="qcurve" smooth="yes"/>
      <point x="760.0" y="354.0"/>
      <point x="889" y="441"/>
      <point x="915.0" y="590.0" type="qcurve" smooth="yes"/>
      <point x="1062.0" y="1456.0" type="line"/>
      <point x="1655.0" y="1456.0" type="line"/>
      <point x="1500.0" y="548.0" type="line" smooth="yes"/>
      <point x="1451" y="260"/>
      <point x="1082.0" y="-30.0"/>
      <point x="665.0" y="-30.0" type="qcurve" smooth="yes"/>
      <point x="286.0" y="-30.0"/>
      <point x="-49" y="239"/>
    </contour>
  </outline>
</glyph>
<glyph name="L" format="2">
  <advance width="1506"/>
  <unicode hex="004C"/>
  <outline>
    <contour>
      <point x="6" y="0" type="line"/>
      <point x="263" y="1456" type="line"/>
      <point x="870" y="1456" type="line"/>
      <point x="689" y="430" type="line"/>
      <point x="1492" y="430" type="line"/>
      <point x="1413" y="0" type="line"/>
    </contour>
  </outline>
</glyph>
<glyph name="M" format="2">
  <advance width="2590"/>
  <unicode hex="004D"/>
  <anchor x="1295.0" y="0" name="bottom"/>
  <anchor x="1295.0" y="1456" name="top"/>
  <outline>
    <contour>
      <point x="6.0" y="0.0" type="line"/>
      <point x="263.0" y="1456.0" type="line"/>
      <point x="843.0" y="1456.0" type="line"/>
      <point x="1221.0" y="758.0" type="line" smooth="yes"/>
      <point x="1231" y="739"/>
      <point x="1284.0" y="645.0"/>
      <point x="1291.0" y="630.0" type="qcurve"/>
      <point x="1291.0" y="630.0" type="line"/>
      <point x="1300.0" y="646.0"/>
      <point x="1372" y="745"/>
      <point x="1382.0" y="758.0" type="qcurve" smooth="yes"/>
      <point x="1893.0" y="1456.0" type="line"/>
      <point x="2583.0" y="1456.0" type="line"/>
      <point x="2326.0" y="0.0" type="line"/>
      <point x="1754.0" y="0.0" type="line"/>
      <point x="1861.0" y="608.0" type="line" smooth="yes"/>
      <point x="1864" y="627"/>
      <point x="1867.0" y="648.0"/>
      <point x="1870.0" y="665.0" type="qcurve"/>
      <point x="1870.0" y="665.0" type="line"/>
      <point x="1858.0" y="649.0"/>
      <point x="1839" y="624"/>
      <point x="1829.0" y="611.0" type="qcurve" smooth="yes"/>
      <point x="1360.0" y="0.0" type="line"/>
      <point x="1041.0" y="0.0" type="line"/>
      <point x="713.0" y="599.0" type="line" smooth="yes"/>
      <point x="704" y="616"/>
      <point x="694.0" y="640.0"/>
      <point x="691.0" y="652.0" type="qcurve"/>
      <point x="690.0" y="652.0" type="line"/>
      <point x="689.0" y="635.0"/>
      <point x="687" y="607"/>
      <point x="685.0" y="597.0" type="qcurve" smooth="yes"/>
      <point x="584.0" y="0.0" type="line"/>
    </contour>
  </outline>
</glyph>
<glyph name="O" format="2">
  <advance width="2110"/>
  <unicode hex="004F"/>
  <outline>
    <contour>
      <point x="44" y="768.0" type="qcurve" smooth="yes"/>
      <point x="46" y="780.0" type="line" smooth="yes"/>
      <point x="109" y="1158"/>
      <point x="751" y="1479.0"/>
      <point x="1181" y="1478.0" type="qcurve" smooth="yes"/>
      <point x="1612" y="1477.0"/>
      <point x="2129" y="1070"/>
      <point x="2062" y="703.0" type="qcurve" smooth="yes"/>
      <point x="2060" y="692.0" type="line" smooth="yes"/>
      <point x="1989" y="300"/>
      <point x="1351" y="-26.0"/>
      <point x="921" y="-25.0" type="qcurve" smooth="yes"/>
      <point x="490" y="-24.0"/>
      <point x="-20" y="385"/>
    </contour>
    <contour>
      <point x="643" y="727.0" type="line" smooth="yes"/>
      <point x="611" y="536.0"/>
      <point x="792" y="367.0"/>
      <point x="990" y="362.0" type="qcurve" smooth="yes"/>
      <point x="1184" y="357.0"/>
      <point x="1426" y="535.0"/>
      <point x="1463" y="722.0" type="qcurve" smooth="yes"/>
      <point x="1467" y="742.0" type="line" smooth="yes"/>
      <point x="1501" y="916.0"/>
      <point x="1309" y="1073.0"/>
      <point x="1114" y="1078.0" type="qcurve" smooth="yes"/>
      <point x="915" y="1083.0"/>
      <point x="674" y="919.0"/>
      <point x="646" y="745.0" type="qcurve" smooth="yes"/>
    </contour>
  </outline>
</glyph>
<glyph name="S" format="2">
  <advance width="1788"/>
  <unicode hex="0053"/>
  <anchor x="894.0" y="0" name="bottom"/>
  <anchor x="894.0" y="1456" name="top"/>
  <outline>
    <contour>
      <point x="-21" y="420" type="qcurve" smooth="yes"/>
      <point x="-26.0" y="481.0" type="line"/>
      <point x="543.0" y="481.0" type="line"/>
      <point x="547.0" y="447.0" type="line" smooth="yes"/>
      <point x="553" y="397"/>
      <point x="658" y="343.0"/>
      <point x="861" y="343.0" type="qcurve" smooth="yes"/>
      <point x="1065" y="343"/>
      <point x="1158" y="382"/>
      <point x="1161" y="418" type="qcurve" smooth="yes"/>
      <point x="1164.0" y="452.0"/>
      <point x="1072.0" y="486.0"/>
      <point x="744.0" y="524.0" type="qcurve" smooth="yes"/>
      <point x="392" y="565"/>
      <point x="98" y="801"/>
      <point x="130" y="1048" type="qcurve" smooth="yes"/>
      <point x="162" y="1295"/>
      <point x="583.0" y="1486.0"/>
      <point x="970.0" y="1486.0" type="qcurve" smooth="yes"/>
      <point x="1362.0" y="1486.0"/>
      <point x="1753" y="1282"/>
      <point x="1764.0" y="1049.0" type="qcurve" smooth="yes"/>
      <point x="1767.0" y="986.0" type="line"/>
      <point x="1228.0" y="986.0" type="line"/>
      <point x="1224.0" y="1008.0" type="line" smooth="yes"/>
      <point x="1218" y="1043"/>
      <point x="1143" y="1096.0"/>
      <point x="948" y="1096.0" type="qcurve" smooth="yes"/>
      <point x="780" y="1096"/>
      <point x="678" y="1076"/>
      <point x="674" y="1049" type="qcurve" smooth="yes"/>
      <point x="670" y="1021"/>
      <point x="739" y="999"/>
      <point x="1108.0" y="947.0" type="qcurve" smooth="yes"/>
      <point x="1436" y="901"/>
      <point x="1730.0" y="693.0"/>
      <point x="1707.0" y="445.0" type="qcurve" smooth="yes"/>
      <point x="1684" y="202"/>
      <point x="1229.0" y="-30.0"/>
      <point x="814.0" y="-30.0" type="qcurve" smooth="yes"/>
      <point x="401.0" y="-30.0"/>
      <point x="-2" y="191"/>
    </contour>
  </outline>
</glyph>
<glyph name="T" format="2">
  <advance width="1736"/>
  <unicode hex="0054"/>
  <anchor x="868.0" y="0" name="bottom"/>
  <anchor x="868.0" y="728.0" name="center"/>
  <anchor x="868.0" y="1456" name="top"/>
  <outline>
    <contour>
      <point x="60.0" y="1005.0" type="line"/>
      <point x="138.0" y="1456.0" type="line"/>
      <point x="1844.0" y="1456.0" type="line"/>
      <point x="1766.0" y="1005.0" type="line"/>
      <point x="1215.0" y="1005.0" type="line"/>
      <point x="1042.0" y="0.0" type="line"/>
      <point x="438.0" y="0.0" type="line"/>
      <point x="611.0" y="1005.0" type="line"/>
    </contour>
  </outline>
</glyph>
<glyph name="V" format="2">
  <advance width="1890"/>
  <unicode hex="0056"/>
  <anchor x="945.0" y="0" name="bottom"/>
  <anchor x="945.0" y="1456" name="top"/>
  <outline>
    <contour>
      <point x="55.0" y="1456.0" type="line"/>
      <point x="654.0" y="1456.0" type="line"/>
      <point x="880.0" y="604.0" type="line" smooth="yes"/>
      <point x="884" y="590"/>
      <point x="887.0" y="574.0"/>
      <point x="892.0" y="553.0" type="qcurve"/>
      <point x="892.0" y="553.0" type="line"/>
      <point x="901.0" y="568.0"/>
      <point x="913" y="585"/>
      <point x="925.0" y="604.0" type="qcurve" smooth="yes"/>
      <point x="1464.0" y="1456.0" type="line"/>
      <point x="2065.0" y="1456.0" type="line"/>
      <point x="1117.0" y="-9.0" type="line"/>
      <point x="480.0" y="-9.0" type="line"/>
    </contour>
  </outline>
</glyph>
<glyph name="X" format="2">
  <advance width="1790"/>
  <unicode hex="0058"/>
  <anchor x="895.0" y="0" name="bottom"/>
  <anchor x="895.0" y="1456" name="top"/>
  <outline>
    <contour>
      <point x="-161.0" y="0.0" type="line"/>
      <point x="727.0" y="885.0" type="line"/>
      <point x="818.0" y="885.0" type="line"/>
      <point x="1361.0" y="1456.0" type="line"/>
      <point x="1964.0" y="1456.0" type="line"/>
      <point x="1097.0" y="572.0" type="line"/>
      <point x="1009.0" y="572.0" type="line"/>
      <point x="445.0" y="0.0" type="line"/>
    </contour>
    <contour>
      <point x="129.0" y="1456.0" type="line"/>
      <point x="803.0" y="1456.0" type="line"/>
      <point x="1116.0" y="918.0" type="line"/>
      <point x="1116.0" y="918.0" type="line"/>
      <point x="1700.0" y="0.0" type="line"/>
      <point x="1026.0" y="0.0" type="line"/>
      <point x="674.0" y="582.0" type="line"/>
      <point x="674.0" y="583.0" type="line"/>
    </contour>
  </outline>
</glyph>
<glyph name="bracketleft" format="2">
  <advance width="968"/>
  <unicode hex="005B"/>
  <outline>
    <contour>
      <point x="-39.0" y="-310.0" type="line"/>
      <point x="272.0" y="1456.0" type="line"/>
      <point x="1076.0" y="1456.0" type="line"/>
      <point x="998.0" y="1061.0" type="line"/>
      <point x="766.0" y="1061.0" type="line"/>
      <point x="593.0" y="85.0" type="line"/>
      <point x="823.0" y="85.0" type="line"/>
      <point x="765.0" y="-310.0" type="line"/>
    </contour>
  </outline>
</glyph>
<glyph name="underscore" format="2">
  <advance width="1081"/>
  <unicode hex="005F"/>
  <outline>
    <contour>
      <point x="-173.0" y="-471.0" type="line"/>
      <point x="-143.0" y="-75.0" type="line"/>
      <point x="938.0" y="-75.0" type="line"/>
      <point x="908.0" y="-471.0" type="line"/>
    </contour>
  </outline>
</glyph>
<glyph name="a" format="2">
  <advance width="1554"/>
  <unicode hex="0061"/>
  <anchor x="777.0" y="0" name="bottom"/>
  <anchor x="1160" y="0" name="ogonek"/>
  <anchor x="777.0" y="914" name="top"/>
  <outline>
    <contour>
      <point x="-60" y="286" type="qcurve" smooth="yes"/>
      <point x="-35" y="425"/>
      <point x="201" y="561"/>
      <point x="432" y="558" type="qcurve" smooth="yes"/>
      <point x="874" y="553" type="line"/>
      <point x="883" y="605" type="line" smooth="yes"/>
      <point x="887" y="631"/>
      <point x="832" y="662"/>
      <point x="742" y="662" type="qcurve" smooth="yes"/>
      <point x="690" y="662"/>
      <point x="621" y="632"/>
      <point x="615" y="601" type="qcurve" smooth="yes"/>
      <point x="611" y="581" type="line"/>
      <point x="107" y="584" type="line"/>
      <point x="110" y="599" type="line" smooth="yes"/>
      <point x="142" y="759"/>
      <point x="510" y="962"/>
      <point x="847" y="962" type="qcurve" smooth="yes"/>
      <point x="1216" y="962"/>
      <point x="1482" y="763"/>
      <point x="1446" y="557" type="qcurve" smooth="yes"/>
      <point x="1380" y="182" type="line" smooth="yes"/>
      <point x="1371" y="132"/>
      <point x="1377" y="43"/>
      <point x="1393" y="12" type="qcurve"/>
      <point x="1391" y="0" type="line"/>
      <point x="815" y="0" type="line"/>
      <point x="802" y="24"/>
      <point x="798" y="76"/>
      <point x="805" y="129" type="qcurve"/>
      <point x="746" y="72"/>
      <point x="504" y="-13"/>
      <point x="307" y="-13" type="qcurve" smooth="yes"/>
      <point x="95" y="-13"/>
      <point x="-84" y="147"/>
    </contour>
    <contour>
      <point x="510" y="335" type="qcurve" smooth="yes"/>
      <point x="504" y="299"/>
      <point x="554" y="259"/>
      <point x="620" y="259" type="qcurve" smooth="yes"/>
      <point x="703" y="259"/>
      <point x="830" y="308"/>
      <point x="841" y="371" type="qcurve"/>
      <point x="843" y="377" type="line"/>
      <point x="612" y="380" type="line" smooth="yes"/>
      <point x="558" y="381"/>
      <point x="514" y="359"/>
    </contour>
  </outline>
</glyph>
<glyph name="c" format="2">
  <advance width="1531"/>
  <unicode hex="0063"/>
  <anchor x="765.5" y="0" name="bottom"/>
  <anchor x="765.5" y="914" name="top"/>
  <outline>
    <contour>
      <point x="3.0" y="460.0" type="qcurve" smooth="yes"/>
      <point x="5.0" y="473.0" type="line" smooth="yes"/>
      <point x="45.0" y="698.0"/>
      <point x="508.0" y="962.0"/>
      <point x="870.0" y="962.0" type="qcurve" smooth="yes"/>
      <point x="1204.0" y="962.0"/>
      <point x="1512.0" y="718.0"/>
      <point x="1498.0" y="521.0" type="qcurve" smooth="yes"/>
      <point x="1495.0" y="489.0" type="line"/>
      <point x="986.0" y="489.0" type="line"/>
      <point x="986.0" y="499.0" type="line" smooth="yes"/>
      <point x="986" y="531"/>
      <point x="911.0" y="584.0"/>
      <point x="821.0" y="584.0" type="qcurve" smooth="yes"/>
      <point x="712" y="584"/>
      <point x="592" y="523"/>
      <point x="584.0" y="466.0" type="qcurve" smooth="yes"/>
      <point x="582.0" y="451.0" type="line" smooth="yes"/>
      <point x="573" y="386"/>
      <point x="668" y="334"/>
      <point x="783.0" y="334.0" type="qcurve" smooth="yes"/>
      <point x="868.0" y="334.0"/>
      <point x="966" y="376"/>
      <point x="973.0" y="402.0" type="qcurve" smooth="yes"/>
      <point x="977.0" y="416.0" type="line"/>
      <point x="1482.0" y="416.0" type="line"/>
      <point x="1474.0" y="382.0" type="line" smooth="yes"/>
      <point x="1426.0" y="195.0"/>
      <point x="1045.0" y="-30.0"/>
      <point x="699.0" y="-30.0" type="qcurve" smooth="yes"/>
      <point x="330.0" y="-30.0"/>
      <point x="-39.0" y="224.0"/>
    </contour>
  </outline>
</glyph>
<glyph name="d" format="2">
  <advance width="1662"/>
  <unicode hex="0064"/>
  <anchor x="831.0" y="0" name="bottom"/>
  <anchor x="1355.0" y="1254" name="center"/>
  <anchor x="831.0" y="914" name="top"/>
  <anchor x="1614" y="914" name="topright"/>
  <outline>
    <contour>
      <point x="2" y="457" type="qcurve" smooth="yes"/>
      <point x="5" y="474" type="line" smooth="yes"/>
      <point x="42" y="688"/>
      <point x="374" y="944"/>
      <point x="633" y="943" type="qcurve" smooth="yes"/>
      <point x="805" y="944"/>
      <point x="1006" y="872"/>
      <point x="1049" y="830" type="qcurve"/>
      <point x="1159" y="1456" type="line"/>
      <point x="1708" y="1456" type="line"/>
      <point x="1451" y="0" type="line"/>
      <point x="905" y="0" type="line"/>
      <point x="914" y="101" type="line"/>
      <point x="912" y="101" type="line"/>
      <point x="844" y="39"/>
      <point x="626" y="-29"/>
      <point x="459" y="-29" type="qcurve" smooth="yes"/>
      <point x="231" y="-29"/>
      <point x="-40" y="223"/>
    </contour>
    <contour>
      <point x="561" y="451" type="line" smooth="yes"/>
      <point x="550" y="394"/>
      <point x="640" y="329"/>
      <point x="728" y="329" type="qcurve" smooth="yes"/>
      <point x="819" y="329"/>
      <point x="953" y="370"/>
      <point x="970" y="386" type="qcurve"/>
      <point x="990" y="523" type="line"/>
      <point x="974" y="548"/>
      <point x="858" y="585"/>
      <point x="767" y="585" type="qcurve" smooth="yes"/>
      <point x="674" y="585"/>
      <point x="571" y="509"/>
      <point x="562" y="457" type="qcurve" smooth="yes"/>
    </contour>
  </outline>
</glyph>
<glyph name="e" format="2">
  <advance width="1614"/>
  <unicode hex="0065"/>
  <anchor x="807.0" y="0" name="bottom"/>
  <anchor x="1008" y="0" name="ogonek"/>
  <anchor x="807.0" y="914" name="top"/>
  <outline>
    <contour>
      <point x="-26.0" y="461.0" type="qcurve" smooth="yes"/>
      <point x="-24.0" y="472.0" type="line" smooth="yes"/>
      <point x="16.0" y="699.0"/>
      <point x="476.0" y="962.0"/>
      <point x="850.0" y="962.0" type="qcurve" smooth="yes"/>
      <point x="1212.0" y="962.0"/>
      <point x="1556" y="696"/>
      <point x="1523.0" y="487.0" type="qcurve" smooth="yes"/>
      <point x="1512.0" y="413.0" type="line"/>
      <point x="277.0" y="413.0" type="line"/>
      <point x="293.0" y="517.0" type="line"/>
      <point x="975.0" y="517.0" type="line"/>
      <point x="976" y="524" type="line" smooth="yes"/>
      <point x="980.0" y="552.0"/>
      <point x="894.0" y="601.0"/>
      <point x="778.0" y="601.0" type="qcurve" smooth="yes"/>
      <point x="665" y="601"/>
      <point x="542" y="544"/>
      <point x="532.0" y="486.0" type="qcurve" smooth="yes"/>
      <point x="526.0" y="452.0" type="line" smooth="yes"/>
      <point x="514" y="386"/>
      <point x="625.0" y="320.0"/>
      <point x="716.0" y="320.0" type="qcurve" smooth="yes"/>
      <point x="853.0" y="320.0"/>
      <point x="982.0" y="382.0"/>
      <point x="1005.0" y="405.0" type="qcurve"/>
      <point x="1489.0" y="334.0" type="line"/>
      <point x="1386.0" y="147.0"/>
      <point x="1007" y="-30"/>
      <point x="653.0" y="-30.0" type="qcurve" smooth="yes"/>
      <point x="298.0" y="-30.0"/>
      <point x="-68.0" y="222.0"/>
    </contour>
  </outline>
</glyph>
<glyph name="g" format="2">
  <advance width="1686"/>
  <unicode hex="0067"/>
  <anchor x="843.0" y="-416" name="bottom"/>
  <anchor x="843.0" y="914" name="top"/>
  <outline>
    <contour>
      <point x="-55.0" y="-357.0" type="qcurve"/>
      <point x="55.0" y="-2.0" type="line"/>
      <point x="105.0" y="-25.0"/>
      <point x="417.0" y="-102.0"/>
      <point x="560" y="-102.0" type="qcurve" smooth="yes"/>
      <point x="684.0" y="-102.0"/>
      <point x="907" y="-28"/>
      <point x="921.0" y="60.0" type="qcurve" smooth="yes"/>
      <point x="927.0" y="97.0" type="line"/>
      <point x="860.0" y="40.0"/>
      <point x="663" y="-30"/>
      <point x="490" y="-30" type="qcurve" smooth="yes"/>
      <point x="258" y="-30"/>
      <point x="-34" y="238"/>
      <point x="6.0" y="480.0" type="qcurve" smooth="yes"/>
      <point x="8.0" y="492.0" type="line" smooth="yes"/>
      <point x="45" y="716"/>
      <point x="375.0" y="944.0"/>
      <point x="629.0" y="944.0" type="qcurve" smooth="yes"/>
      <point x="797.0" y="944.0"/>
      <point x="996.0" y="855.0"/>
      <point x="1040.0" y="800.0" type="qcurve"/>
      <point x="1040.0" y="800.0" type="line"/>
      <point x="1064.0" y="914.0" type="line"/>
      <point x="1624.0" y="914.0" type="line"/>
      <point x="1511.0" y="240.0" type="line" smooth="yes"/>
      <point x="1452" y="-112"/>
      <point x="982.0" y="-451.0"/>
      <point x="641.0" y="-451.0" type="qcurve" smooth="yes"/>
      <point x="401.0" y="-451.0"/>
      <point x="49.0" y="-390.0"/>
    </contour>
    <contour>
      <point x="569.0" y="449.0" type="line" smooth="yes"/>
      <point x="559.0" y="393.0"/>
      <point x="644.0" y="321.0"/>
      <point x="747.0" y="321.0" type="qcurve" smooth="yes"/>
      <point x="838.0" y="321.0"/>
      <point x="954.0" y="363.0"/>
      <point x="969.0" y="378.0" type="qcurve"/>
      <point x="993.0" y="533.0" type="line"/>
      <point x="975.0" y="553.0"/>
      <point x="867.0" y="585.0"/>
      <point x="793.0" y="585.0" type="qcurve" smooth="yes"/>
      <point x="683.0" y="585.0"/>
      <point x="580.0" y="508.0"/>
      <point x="570.0" y="455.0" type="qcurve" smooth="yes"/>
    </contour>
  </outline>
</glyph>
<glyph name="h" format="2">
  <advance width="1613"/>
  <unicode hex="0068"/>
  <anchor x="806.5" y="0" name="bottom"/>
  <anchor x="489" y="1254" name="center"/>
  <anchor x="487" y="1456" name="top"/>
  <outline>
    <contour>
      <point x="-46.0" y="0.0" type="line"/>
      <point x="210.0" y="1456.0" type="line"/>
      <point x="784.0" y="1456.0" type="line"/>
      <point x="656.0" y="754.0" type="line"/>
      <point x="710.0" y="827.0"/>
      <point x="957.0" y="956.0"/>
      <point x="1153.0" y="956.0" type="qcurve" smooth="yes"/>
      <point x="1361" y="956"/>
      <point x="1551" y="738"/>
      <point x="1519.0" y="555.0" type="qcurve" smooth="yes"/>
      <point x="1422.0" y="0.0" type="line"/>
      <point x="850.0" y="0.0" type="line"/>
      <point x="926.0" y="432.0" type="line" smooth="yes"/>
      <point x="936" y="487"/>
      <point x="892.0" y="539.0"/>
      <point x="823.0" y="539.0" type="qcurve" smooth="yes"/>
      <point x="754.0" y="539.0"/>
      <point x="627.0" y="479.0"/>
      <point x="603.0" y="445.0" type="qcurve"/>
      <point x="525.0" y="0.0" type="line"/>
    </contour>
  </outline>
</glyph>
<glyph name="k" format="2">
  <advance width="1581"/>
  <unicode hex="006B"/>
  <anchor x="790.5" y="0" name="bottom"/>
  <anchor x="790.5" y="914" name="top"/>
  <outline>
    <contour>
      <point x="-44" y="0" type="line"/>
      <point x="213" y="1456" type="line"/>
      <point x="792" y="1456" type="line"/>
      <point x="647" y="638" type="line"/>
      <point x="1001" y="914" type="line"/>
      <point x="1623" y="914" type="line"/>
      <point x="560" y="169" type="line"/>
      <point x="535" y="0" type="line"/>
    </contour>
    <contour>
      <point x="905" y="0" type="line"/>
      <point x="552" y="374" type="line"/>
      <point x="962" y="656" type="line"/>
      <point x="1610" y="0" type="line"/>
    </contour>
  </outline>
</glyph>
<glyph name="m" format="2">
  <advance width="2414"/>
  <unicode hex="006D"/>
  <anchor x="1207.0" y="0" name="bottom"/>
  <anchor x="1207.0" y="914" name="top"/>
  <outline>
    <contour>
      <point x="-52" y="0" type="line"/>
      <point x="109" y="914" type="line"/>
      <point x="672" y="914" type="line"/>
      <point x="643" y="749" type="line"/>
      <point x="647" y="749" type="line"/>
      <point x="710" y="841"/>
      <point x="951" y="962"/>
      <point x="1107" y="962" type="qcurve" smooth="yes"/>
      <point x="1264" y="962"/>
      <point x="1438" y="828"/>
      <point x="1452" y="743" type="qcurve"/>
      <point x="1455" y="743" type="line"/>
      <point x="1549" y="842"/>
      <point x="1773" y="964"/>
      <point x="1946" y="964" type="qcurve" smooth="yes"/>
      <point x="2143" y="964"/>
      <point x="2350" y="745"/>
      <point x="2321" y="562" type="qcurve" smooth="yes"/>
      <point x="2222" y="0" type="line"/>
      <point x="1650" y="0" type="line"/>
      <point x="1728" y="437" type="line" smooth="yes"/>
      <point x="1737" y="490"/>
      <point x="1697" y="551"/>
      <point x="1624" y="551" type="qcurve" smooth="yes"/>
      <point x="1554" y="551"/>
      <point x="1469" y="504"/>
      <point x="1454" y="471" type="qcurve"/>
      <point x="1370" y="0" type="line"/>
      <point x="798" y="0" type="line"/>
      <point x="875" y="433" type="line" smooth="yes"/>
      <point x="884" y="482"/>
      <point x="847" y="551"/>
      <point x="780" y="551" type="qcurve" smooth="yes"/>
      <point x="724" y="551"/>
      <point x="620" y="501"/>
      <point x="601" y="460" type="qcurve"/>
      <point x="519" y="0" type="line"/>
    </contour>
  </outline>
</glyph>
<glyph name="o" format="2">
  <advance width="1644"/>
  <unicode hex="006F"/>
  <anchor x="822.0" y="0" name="bottom"/>
  <anchor x="822.0" y="728.0" name="center"/>
  <anchor x="1009" y="0" name="ogonek"/>
  <anchor x="822.0" y="914" name="top"/>
  <anchor x="1238" y="914" name="topright"/>
  <outline>
    <contour>
      <point x="1" y="459" type="qcurve" smooth="yes"/>
      <point x="3" y="471" type="line" smooth="yes"/>
      <point x="39" y="689"/>
      <point x="512" y="962"/>
      <point x="872" y="962" type="qcurve" smooth="yes"/>
      <point x="1234" y="962"/>
      <point x="1604" y="689"/>
      <point x="1568" y="471" type="qcurve" smooth="yes"/>
      <point x="1566" y="459" type="line" smooth="yes"/>
      <point x="1528" y="233"/>
      <point x="1056" y="-30"/>
      <point x="695" y="-30" type="qcurve" smooth="yes"/>
      <point x="334" y="-30"/>
      <point x="-37" y="233"/>
    </contour>
    <contour>
      <point x="575" y="466" type="qcurve" smooth="yes"/>
      <point x="573" y="451" type="line" smooth="yes"/>
      <point x="562" y="394"/>
      <point x="656" y="333"/>
      <point x="759" y="333" type="qcurve" smooth="yes"/>
      <point x="863" y="333"/>
      <point x="974" y="395"/>
      <point x="984" y="452" type="qcurve" smooth="yes"/>
      <point x="986" y="466" type="line" smooth="yes"/>
      <point x="997" y="527"/>
      <point x="904" y="584"/>
      <point x="800" y="584" type="qcurve" smooth="yes"/>
      <point x="697" y="584"/>
      <point x="586" y="526"/>
    </contour>
  </outline>
</glyph>
<glyph name="p" format="2">
  <advance width="1649"/>
  <unicode hex="0070"/>
  <anchor x="824.5" y="0" name="bottom"/>
  <anchor x="824.5" y="914" name="top"/>
  <outline>
    <contour>
      <point x="-112" y="-388" type="line"/>
      <point x="117" y="914" type="line"/>
      <point x="669" y="914" type="line"/>
      <point x="655" y="821" type="line"/>
      <point x="656" y="821" type="line"/>
      <point x="709" y="866"/>
      <point x="945" y="955"/>
      <point x="1124" y="955" type="qcurve" smooth="yes"/>
      <point x="1359" y="955"/>
      <point x="1605" y="692"/>
      <point x="1566" y="458" type="qcurve" smooth="yes"/>
      <point x="1564" y="446" type="line" smooth="yes"/>
      <point x="1525" y="212"/>
      <point x="1158" y="-30"/>
      <point x="933" y="-30" type="qcurve" smooth="yes"/>
      <point x="769" y="-30"/>
      <point x="558" y="37"/>
      <point x="521" y="60" type="qcurve"/>
      <point x="441" y="-388" type="line"/>
    </contour>
    <contour>
      <point x="583" y="380" type="line"/>
      <point x="610" y="361"/>
      <point x="721" y="329"/>
      <point x="799" y="329" type="qcurve" smooth="yes"/>
      <point x="889" y="329"/>
      <point x="989" y="387"/>
      <point x="1002" y="452" type="qcurve" smooth="yes"/>
      <point x="1004" y="462" type="line" smooth="yes"/>
      <point x="1015" y="519"/>
      <point x="915" y="585"/>
      <point x="831" y="584" type="qcurve"/>
      <point x="761" y="585"/>
      <point x="632" y="546"/>
      <point x="608" y="534" type="qcurve"/>
    </contour>
  </outline>
</glyph>
<glyph name="q" format="2">
  <advance width="1662"/>
  <unicode hex="0071"/>
  <anchor x="831.0" y="0" name="bottom"/>
  <anchor x="831.0" y="914" name="top"/>
  <outline>
    <contour>
      <point x="5" y="480" type="qcurve" smooth="yes"/>
      <point x="8" y="497" type="line" smooth="yes"/>
      <point x="45" y="706"/>
      <point x="366" y="942"/>
      <point x="609" y="942" type="qcurve" smooth="yes"/>
      <point x="796" y="942"/>
      <point x="1024" y="857"/>
      <point x="1053" y="821" type="qcurve"/>
      <point x="1053" y="821" type="line"/>
      <point x="1073" y="914" type="line"/>
      <point x="1612" y="914" type="line"/>
      <point x="1382" y="-390" type="line"/>
      <point x="843" y="-390" type="line"/>
      <point x="922" y="72" type="line"/>
      <point x="922" y="72" type="line"/>
      <point x="853" y="29"/>
      <point x="645" y="-29"/>
      <point x="479" y="-29" type="qcurve" smooth="yes"/>
      <point x="221" y="-29"/>
      <point x="-36" y="246"/>
    </contour>
    <contour>
      <point x="561" y="448" type="line" smooth="yes"/>
      <point x="554" y="387"/>
      <point x="637" y="329"/>
      <point x="730" y="329" type="qcurve" smooth="yes"/>
      <point x="833" y="329"/>
      <point x="954" y="371"/>
      <point x="970" y="386" type="qcurve"/>
      <point x="990" y="523" type="line"/>
      <point x="972" y="543"/>
      <point x="858" y="585"/>
      <point x="769" y="585" type="qcurve" smooth="yes"/>
      <point x="674" y="585"/>
      <point x="568" y="511"/>
      <point x="562" y="457" type="qcurve" smooth="yes"/>
    </contour>
  </outline>
</glyph>
<glyph name="s" format="2">
  <advance width="1568"/>
  <unicode hex="0073"/>
  <anchor x="784.0" y="0" name="bottom"/>
  <anchor x="784.0" y="914" name="top"/>
  <outline>
    <contour>
      <point x="-64.0" y="330.0" type="line"/>
      <point x="430.0" y="322.0" type="line"/>
      <point x="428.0" y="310.0" type="line" smooth="yes"/>
      <point x="420" y="264"/>
      <point x="556" y="240"/>
      <point x="676.0" y="240.0" type="qcurve" smooth="yes"/>
      <point x="832.0" y="240.0"/>
      <point x="926.0" y="266.0"/>
      <point x="929" y="286" type="qcurve" smooth="yes"/>
      <point x="933.0" y="306.0"/>
      <point x="876.0" y="316.0"/>
      <point x="570.0" y="331.0" type="qcurve" smooth="yes"/>
      <point x="192" y="350"/>
      <point x="-22.0" y="509.0"/>
      <point x="3.0" y="650.0" type="qcurve" smooth="yes"/>
      <point x="30.0" y="804.0"/>
      <point x="482" y="959"/>
      <point x="807.0" y="959.0" type="qcurve" smooth="yes"/>
      <point x="1152.0" y="959.0"/>
      <point x="1476" y="774"/>
      <point x="1456.0" y="640.0" type="qcurve" smooth="yes"/>
      <point x="1453.0" y="613.0" type="line"/>
      <point x="969.0" y="613.0" type="line"/>
      <point x="969.0" y="622.0" type="line" smooth="yes"/>
      <point x="969.0" y="643"/>
      <point x="867" y="660"/>
      <point x="711.0" y="660.0" type="qcurve" smooth="yes"/>
      <point x="546" y="660"/>
      <point x="497.0" y="651.0"/>
      <point x="494" y="638" type="qcurve" smooth="yes"/>
      <point x="492" y="625"/>
      <point x="544.0" y="612.0"/>
      <point x="874.0" y="599.0" type="qcurve" smooth="yes"/>
      <point x="1264" y="584"/>
      <point x="1479" y="430"/>
      <point x="1464" y="296" type="qcurve" smooth="yes"/>
      <point x="1448.0" y="156.0"/>
      <point x="1047" y="-37"/>
      <point x="652.0" y="-37.0" type="qcurve" smooth="yes"/>
      <point x="257.0" y="-37"/>
      <point x="-90" y="160"/>
      <point x="-69.0" y="297.0" type="qcurve" smooth="yes"/>
    </contour>
  </outline>
</glyph>
<glyph name="t" format="2">
  <advance width="1154"/>
  <unicode hex="0074"/>
  <anchor x="577.0" y="0" name="bottom"/>
  <anchor x="476.0" y="446.0" name="center"/>
  <anchor x="577.0" y="914" name="top"/>
  <anchor x="1049.0" y="914" name="topright"/>
  <outline>
    <contour>
      <point x="-47.0" y="520.0" type="line"/>
      <point x="23.0" y="914.0" type="line"/>
      <point x="1149.0" y="914.0" type="line"/>
      <point x="1079.0" y="520.0" type="line"/>
    </contour>
    <contour>
      <point x="157" y="401" type="qcurve" smooth="yes"/>
      <point x="240.0" y="872.0" type="line"/>
      <point x="262.0" y="883.0" type="line"/>
      <point x="313.0" y="1172.0" type="line"/>
      <point x="860.0" y="1172.0" type="line"/>
      <point x="750.0" y="552.0" type="line" smooth="yes"/>
      <point x="734.0" y="461.0"/>
      <point x="800.0" y="370.0"/>
      <point x="881.0" y="370.0" type="qcurve" smooth="yes"/>
      <point x="956.0" y="370.0"/>
      <point x="1030.0" y="382.0"/>
      <point x="1062.0" y="392.0" type="qcurve"/>
      <point x="1021.0" y="31.0" type="line"/>
      <point x="930.0" y="7.0"/>
      <point x="727" y="-20"/>
      <point x="589" y="-20" type="qcurve" smooth="yes"/>
      <point x="367" y="-20"/>
      <point x="122" y="201"/>
    </contour>
  </outline>
</glyph>
<glyph name="w" format="2">
  <advance width="2438"/>
  <unicode hex="0077"/>
  <guideline x="781" y="492" angle="0" identifier="dRIUV6d3lC"/>
  <guideline x="784" y="488" angle="0" identifier="ozuaRCSaK7"/>
  <anchor x="1219.0" y="0" name="bottom"/>
  <anchor x="1219.0" y="914" name="top"/>
  <outline>
    <contour>
      <point x="11.0" y="914.0" type="line"/>
      <point x="539.0" y="914.0" type="line"/>
      <point x="673.0" y="419.0" type="line" smooth="yes"/>
      <point x="675" y="411"/>
      <point x="677.0" y="407.0"/>
      <point x="679.0" y="401.0" type="qcurve"/>
      <point x="683.0" y="401.0" type="line"/>
      <point x="687.0" y="407.0"/>
      <point x="690" y="411"/>
      <point x="695.0" y="419.0" type="qcurve" smooth="yes"/>
      <point x="1009.0" y="914.0" type="line"/>
      <point x="1498.0" y="914.0" type="line"/>
      <point x="1630.0" y="419.0" type="line" smooth="yes"/>
      <point x="1632" y="411"/>
      <point x="1634.0" y="407.0"/>
      <point x="1636.0" y="401.0" type="qcurve"/>
      <point x="1640.0" y="401.0" type="line"/>
      <point x="1644.0" y="407.0"/>
      <point x="1647" y="411"/>
      <point x="1652.0" y="419.0" type="qcurve" smooth="yes"/>
      <point x="1961.0" y="914.0" type="line"/>
      <point x="2469.0" y="914.0" type="line"/>
      <point x="1893.0" y="0.0" type="line"/>
      <point x="1307.0" y="0.0" type="line"/>
      <point x="1164.0" y="429.0" type="line" smooth="yes"/>
      <point x="1162" y="436"/>
      <point x="1159.0" y="445.0"/>
      <point x="1157.0" y="449.0" type="qcurve"/>
      <point x="1157.0" y="449.0" type="line"/>
      <point x="1154.0" y="445.0"/>
      <point x="1148" y="436"/>
      <point x="1144.0" y="429.0" type="qcurve" smooth="yes"/>
      <point x="869.0" y="0.0" type="line"/>
      <point x="262.0" y="0.0" type="line"/>
    </contour>
  </outline>
</glyph>
<glyph name="z" format="2">
  <advance width="1441"/>
  <unicode hex="007A"/>
  <anchor x="720.5" y="0" name="bottom"/>
  <anchor x="720.5" y="914" name="top"/>
  <outline>
    <contour>
      <point x="-95.0" y="0.0" type="line"/>
      <point x="-45.0" y="285.0" type="line"/>
      <point x="497.0" y="580.0" type="line"/>
      <point x="26.0" y="580.0" type="line"/>
      <point x="85.0" y="914.0" type="line"/>
      <point x="1379.0" y="914.0" type="line"/>
      <point x="1325.0" y="609.0" type="line"/>
      <point x="784.0" y="314.0" type="line"/>
      <point x="1311.0" y="314.0" type="line"/>
      <point x="1256.0" y="0.0" type="line"/>
    </contour>
  </outline>
</glyph>
<glyph name="yen" format="2">
  <advance width="1851"/>
  <unicode hex="00A5"/>
  <outline>
    <contour>
      <point x="-47.68884861383668" y="291.0" type="line"/>
      <point x="-16.126319067021456" y="470.0" type="line"/>
      <point x="1784.8736809329785" y="470.0" type="line"/>
      <point x="1753.3111513861634" y="291.0" type="line"/>
    </contour>
    <contour>
      <point x="6.972515405787448" y="601.0" type="line"/>
      <point x="37.65341004906037" y="775.0" type="line"/>
      <point x="848.6534100490603" y="775.0" type="line"/>
      <point x="882.9627500939631" y="669.0" type="line"/>
      <point x="991.962750093963" y="669.0" type="line"/>
      <point x="1058.6534100490603" y="775.0" type="line"/>
      <point x="1838.6534100490603" y="775.0" type="line"/>
      <point x="1807.9725154057874" y="601.0" type="line"/>
    </contour>
    <contour>
      <point x="493.0" y="0.0" type="line"/>
      <point x="589.6271854282388" y="548.0" type="line"/>
      <point x="79.73208391152502" y="1456.0" type="line"/>
      <point x="893.732083911525" y="1456.0" type="line"/>
      <point x="960.1091511525028" y="1288.0" type="line" smooth="yes"/>
      <point x="971.1719956926659" y="1260.0"/>
      <point x="999.6576627182772" y="1155.0"/>
      <point x="1004.1335644320638" y="1118.0" type="qcurve"/>
      <point x="1024.1335644320638" y="1118.0" type="line"/>
      <point x="1052.0078753517378" y="1174.0"/>
      <point x="1107.9956687119575" y="1259.0"/>
      <point x="1128.1091511525028" y="1288.0" type="qcurve" smooth="yes"/>
      <point x="1255.732083911525" y="1456.0" type="line"/>
      <point x="2028.732083911525" y="1456.0" type="line"/>
      <point x="1199.6271854282388" y="548.0" type="line"/>
      <point x="1103.0" y="0.0" type="line"/>
    </contour>
  </outline>
</glyph>
<glyph name="dieresis" format="2">
  <advance width="1024"/>
  <unicode hex="00A8"/>
  <outline>
    <contour>
      <point x="79.06583723598868" y="1180.0" type="qcurve" smooth="yes"/>
      <point x="95.64057342258437" y="1274.0"/>
      <point x="240.56308091468486" y="1404.0"/>
      <point x="356.56308091468486" y="1404.0" type="qcurve" smooth="yes"/>
      <point x="473.56308091468486" y="1404.0"/>
      <point x="572.6405734225843" y="1274.0"/>
      <point x="556.0658372359887" y="1180.0" type="qcurve" smooth="yes"/>
      <point x="540.3727359529353" y="1091.0"/>
      <point x="395.97920940296024" y="964.0"/>
      <point x="278.97920940296024" y="964.0" type="qcurve" smooth="yes"/>
      <point x="162.97920940296024" y="964.0"/>
      <point x="63.3727359529353" y="1091.0"/>
    </contour>
    <contour>
      <point x="627.7131832745717" y="1178.0" type="qcurve" smooth="yes"/>
      <point x="644.2879194611675" y="1272.0"/>
      <point x="786.2104269532679" y="1402.0"/>
      <point x="905.2104269532679" y="1402.0" type="qcurve" smooth="yes"/>
      <point x="1018.2104269532679" y="1402.0"/>
      <point x="1120.2879194611673" y="1272.0"/>
      <point x="1103.7131832745717" y="1178.0" type="qcurve" smooth="yes"/>
      <point x="1088.0200819915183" y="1089.0"/>
      <point x="940.6265554415434" y="962.0"/>
      <point x="827.6265554415434" y="962.0" type="qcurve" smooth="yes"/>
      <point x="708.6265554415434" y="962.0"/>
      <point x="612.0200819915184" y="1089.0"/>
    </contour>
  </outline>
</glyph>
<glyph name="ordfeminine" format="2">
  <advance width="1417"/>
  <unicode hex="00AA"/>
  <guideline x="168.40565457092964" y="1681.0" angle="0.0" identifier="3CJlALCfkl"/>
  <guideline x="32.28122546399467" y="909.0" angle="0.0" identifier="Zdl6NZVQAy"/>
  <outline>
    <contour>
      <point x="774.8175303899884" y="861.0" type="line" smooth="yes"/>
      <point x="768.998740026609" y="828.0"/>
      <point x="793.7186959171795" y="730.0"/>
      <point x="824.4868483801763" y="706.0" type="qcurve"/>
      <point x="1392.4868483801763" y="706.0" type="line"/>
      <point x="1375.0109466663894" y="743.0"/>
      <point x="1365.5301622966904" y="814.0"/>
      <point x="1372.7595685057377" y="855.0" type="qcurve" smooth="yes"/>
      <point x="1428.655221390321" y="1172.0" type="line" smooth="yes"/>
      <point x="1456.3385573615499" y="1329.0"/>
      <point x="1191.4349505064029" y="1477.0"/>
      <point x="870.4349505064027" y="1477.0" type="qcurve" smooth="yes"/>
      <point x="565.4349505064027" y="1477.0"/>
      <point x="191.0438652843838" y="1333.0"/>
      <point x="167.76870383086646" y="1201.0" type="qcurve" smooth="yes"/>
      <point x="165.82910704307335" y="1190.0" type="line"/>
      <point x="684.4764530816564" y="1188.0" type="line"/>
      <point x="687.1213577922833" y="1203.0" type="line" smooth="yes"/>
      <point x="690.6478974064527" y="1223.0"/>
      <point x="734.8797449434558" y="1247.0"/>
      <point x="771.8797449434558" y="1247.0" type="qcurve" smooth="yes"/>
      <point x="809.8797449434558" y="1247.0"/>
      <point x="838.1189164643273" y="1220.0"/>
      <point x="833.7107419466156" y="1195.0" type="qcurve" smooth="yes"/>
    </contour>
    <contour>
      <point x="857.5368562938633" y="1177.0" type="line"/>
      <point x="537.5368562938633" y="1177.0" type="line" smooth="yes"/>
      <point x="328.53685629386325" y="1177.0"/>
      <point x="55.02740597538664" y="1038.0"/>
      <point x="34.92613017462165" y="924.0" type="qcurve" smooth="yes"/>
      <point x="15.001181354565091" y="811.0"/>
      <point x="185.5472515923832" y="695.0"/>
      <point x="361.5472515923832" y="695.0" type="qcurve" smooth="yes"/>
      <point x="499.5472515923832" y="695.0"/>
      <point x="700.1268704348911" y="755.0"/>
      <point x="796.2983147596874" y="790.0" type="qcurve"/>
      <point x="794.9188061907533" y="975.0" type="line"/>
      <point x="786.0396126151671" y="953.0"/>
      <point x="714.0444952710793" y="919.0"/>
      <point x="673.0444952710793" y="919.0" type="qcurve" smooth="yes"/>
      <point x="634.0444952710793" y="919.0"/>
      <point x="594.7473618659571" y="940.0"/>
      <point x="598.6265554415434" y="962.0" type="qcurve" smooth="yes"/>
      <point x="603.034729959255" y="987.0"/>
      <point x="665.7955584383835" y="1014.0"/>
      <point x="724.7955584383835" y="1014.0" type="qcurve" smooth="yes"/>
      <point x="828.7955584383835" y="1014.0" type="line"/>
    </contour>
  </outline>
</glyph>
<glyph name="macron" format="2">
  <advance width="1024"/>
  <unicode hex="00AF"/>
  <outline>
    <contour>
      <point x="1049.7369665674373" y="1422.0" type="line"/>
      <point x="977.7955584383835" y="1014.0" type="line"/>
      <point x="147.79555843838352" y="1014.0" type="line"/>
      <point x="219.7369665674372" y="1422.0" type="line"/>
    </contour>
  </outline>
</glyph>
<glyph name="degree" format="2">
  <advance width="1164"/>
  <unicode hex="00B0"/>
  <outline>
    <contour>
      <point x="110.54418027773156" y="1126.0" type="qcurve"/>
      <point x="140.34344001746217" y="1295.0"/>
      <point x="454.43495050640274" y="1477.0"/>
      <point x="716.4349505064027" y="1477.0" type="qcurve" smooth="yes"/>
      <point x="976.4349505064029" y="1477.0"/>
      <point x="1224.3434400174622" y="1295.0"/>
      <point x="1194.5441802777316" y="1126.0" type="qcurve" smooth="yes"/>
      <point x="1165.097574499418" y="959.0"/>
      <point x="853.3587179718942" y="779.0"/>
      <point x="593.3587179718942" y="779.0" type="qcurve" smooth="yes"/>
      <point x="331.3587179718942" y="779.0"/>
      <point x="81.0975744994179" y="959.0"/>
    </contour>
    <contour>
      <point x="469.72050725843997" y="1127.0" type="qcurve"/>
      <point x="462.6674280301014" y="1087.0"/>
      <point x="550.2616948403459" y="1045.0"/>
      <point x="639.2616948403459" y="1045.0" type="qcurve" smooth="yes"/>
      <point x="727.2616948403459" y="1045.0"/>
      <point x="828.6674280301014" y="1087.0"/>
      <point x="835.72050725844" y="1127.0" type="qcurve" smooth="yes"/>
      <point x="842.7735864867786" y="1167.0"/>
      <point x="756.5319736379511" y="1211.0"/>
      <point x="668.5319736379511" y="1211.0" type="qcurve" smooth="yes"/>
      <point x="579.5319736379511" y="1211.0"/>
      <point x="476.77358648677864" y="1167.0"/>
    </contour>
  </outline>
</glyph>
<glyph name="acute" format="2">
  <advance width="1024"/>
  <unicode hex="00B4"/>
  <outline>
    <contour>
      <point x="276.7784691426908" y="1130.0" type="line"/>
      <point x="554.0194520048228" y="1500.0" type="line"/>
      <point x="1061.0969445127225" y="1370.0" type="line"/>
      <point x="737.8559616505904" y="1000.0" type="line"/>
    </contour>
  </outline>
</glyph>
<glyph name="periodcentered" format="2">
  <advance width="720"/>
  <unicode hex="00B7"/>
  <outline>
    <contour>
      <point x="52.481965724264086" y="740.0" type="qcurve" smooth="yes"/>
      <point x="73.11222246715448" y="857.0"/>
      <point x="261.1482123998004" y="1016.0"/>
      <point x="411.1482123998004" y="1016.0" type="qcurve" smooth="yes"/>
      <point x="561.1482123998004" y="1016.0"/>
      <point x="693.1122224671544" y="857.0"/>
      <point x="672.3056387435556" y="739.0" type="qcurve" smooth="yes"/>
      <point x="651.4990550199568" y="621.0"/>
      <point x="463.46306508731084" y="462.0"/>
      <point x="313.46306508731084" y="462.0" type="qcurve" smooth="yes"/>
      <point x="163.46306508731084" y="462.0"/>
      <point x="32.02803596208213" y="624.0"/>
    </contour>
  </outline>
</glyph>
<glyph name="thorn" format="2">
  <advance width="1684"/>
  <unicode hex="00FE"/>
  <outline>
    <contour>
      <point x="-108.4148685148844" y="-388.0" type="line"/>
      <point x="230.8382423682022" y="1536.0" type="line"/>
      <point x="803.8382423682021" y="1536.0" type="line"/>
      <point x="677.7644511616497" y="821.0" type="line"/>
      <point x="730.6991652935307" y="866.0"/>
      <point x="945.392266576584" y="955.0"/>
      <point x="1114.392266576584" y="955.0" type="qcurve" smooth="yes"/>
      <point x="1373.392266576584" y="955.0"/>
      <point x="1641.19215630301" y="710.0"/>
      <point x="1598.5210269715617" y="468.0" type="qcurve" smooth="yes"/>
      <point x="1596.40510320306" y="456.0" type="line" smooth="yes"/>
      <point x="1555.3209166979877" y="223.0"/>
      <point x="1179.710190578746" y="-30.0"/>
      <point x="934.710190578746" y="-30.0" type="qcurve" smooth="yes"/>
      <point x="773.710190578746" y="-30.0"/>
      <point x="586.5240982862132" y="37.0"/>
      <point x="549.5796188425079" y="60.0" type="qcurve"/>
      <point x="547.5796188425079" y="60.0" type="line"/>
      <point x="468.58513148511565" y="-388.0" type="line"/>
    </contour>
    <contour>
      <point x="605.0042526692167" y="380.0" type="line"/>
      <point x="618.3593479585898" y="365.0"/>
      <point x="726.011576653085" y="329.0"/>
      <point x="810.011576653085" y="329.0" type="qcurve" smooth="yes"/>
      <point x="904.0115766530851" y="329.0"/>
      <point x="1017.2965034184267" y="393.0"/>
      <point x="1028.757757164477" y="458.0" type="qcurve" smooth="yes"/>
      <point x="1030.5210269715617" y="468.0" type="line" smooth="yes"/>
      <point x="1040.924318833361" y="527.0"/>
      <point x="947.3880139073674" y="575.0"/>
      <point x="856.3880139073674" y="575.0" type="qcurve" smooth="yes"/>
      <point x="775.3880139073674" y="575.0"/>
      <point x="648.8639156211542" y="538.0"/>
      <point x="630.3953378912356" y="524.0" type="qcurve"/>
    </contour>
  </outline>
</glyph>
<glyph name="primemod" format="2">
  <advance width="948"/>
  <unicode hex="02B9"/>
  <outline>
    <contour>
      <point x="288.8431250241144" y="1502.0" type="line"/>
      <point x="980.8431250241144" y="1502.0" type="line"/>
      <point x="778.9188061907533" y="975.0" type="line"/>
      <point x="148.8004410942957" y="980.0" type="line"/>
    </contour>
  </outline>
</glyph>
<glyph name="circumflex" format="2">
  <advance width="1024"/>
  <unicode hex="02C6"/>
  <outline>
    <contour>
      <point x="722.732083911525" y="1456.0" type="line"/>
      <point x="1103.6241141135872" y="979.0" type="line"/>
      <point x="701.6241141135872" y="979.0" type="line"/>
      <point x="566.1408884159321" y="1067.0" type="line"/>
      <point x="398.6241141135872" y="979.0" type="line"/>
      <point x="1.6241141135872112" y="979.0" type="line"/>
      <point x="544.732083911525" y="1456.0" type="line"/>
    </contour>
  </outline>
</glyph>
<glyph name="ogonek" format="2">
  <advance width="1024"/>
  <unicode hex="02DB"/>
  <outline>
    <contour>
      <point x="382" y="61.0" type="qcurve"/>
      <point x="585" y="0.0" type="line"/>
      <point x="531" y="-29.0"/>
      <point x="434" y="-96.0"/>
      <point x="427" y="-136.0" type="qcurve" smooth="yes"/>
      <point x="424" y="-155.0"/>
      <point x="448" y="-180.0"/>
      <point x="480" y="-180.0" type="qcurve" smooth="yes"/>
      <point x="506" y="-180.0"/>
      <point x="549" y="-168.0"/>
      <point x="562" y="-163.0" type="qcurve"/>
      <point x="541" y="-427.0" type="line"/>
      <point x="493" y="-444.0"/>
      <point x="351" y="-475.0"/>
      <point x="246" y="-475.0" type="qcurve" smooth="yes"/>
      <point x="103" y="-475.0"/>
      <point x="-77" y="-368.0"/>
      <point x="-59" y="-266.0" type="qcurve" smooth="yes"/>
      <point x="-43" y="-180.0"/>
      <point x="206" y="-7.0"/>
    </contour>
  </outline>
</glyph>
<glyph name="hungarumlaut" format="2">
  <advance width="1024"/>
  <unicode hex="02DD"/>
  <guideline x="30.870609618326938" y="901.0" angle="0.0" identifier="1emCWSQy5G"/>
  <guideline x="-30.138525706801943" y="555.0" angle="0.0" identifier="s1MFYmxmed"/>
  <outline>
    <contour>
      <point x="-0.5137816065192169" y="1120.0" type="line"/>
      <point x="353.1957789855313" y="1504.0" type="line"/>
      <point x="672.1671130367537" y="1294.0" type="line"/>
      <point x="273.86328563445863" y="952.0" type="line"/>
    </contour>
    <contour>
      <point x="564.4862183934808" y="1120.0" type="line"/>
      <point x="920.1957789855314" y="1504.0" type="line"/>
      <point x="1238.1671130367536" y="1294.0" type="line"/>
      <point x="840.8632856344586" y="952.0" type="line"/>
    </contour>
  </outline>
</glyph>
<glyph name="hookabovecomb" format="2">
  <advance width="1024"/>
  <unicode hex="0309"/>
  <outline>
    <contour>
      <point x="327.744920538001" y="957.0" type="line"/>
      <point x="335.326980708465" y="1000.0" type="line" smooth="yes"/>
      <point x="351.19640897222683" y="1090.0"/>
      <point x="474.1842023324464" y="1175.0"/>
      <point x="554.0658372359887" y="1180.0" type="qcurve" smooth="yes"/>
      <point x="609.947472139531" y="1185.0"/>
      <point x="641.239722888741" y="1198.0"/>
      <point x="644.7662625029103" y="1218.0" type="qcurve" smooth="yes"/>
      <point x="647.7638211749543" y="1235.0"/>
      <point x="604.7613798469981" y="1252.0"/>
      <point x="550.7613798469981" y="1252.0" type="qcurve" smooth="yes"/>
      <point x="486.7613798469981" y="1252.0"/>
      <point x="345.64789740645267" y="1223.0"/>
      <point x="332.9425894836188" y="1219.0" type="qcurve"/>
      <point x="283.09206185681023" y="1407.0" type="line"/>
      <point x="329.79492845168795" y="1428.0"/>
      <point x="547.7296425835689" y="1473.0"/>
      <point x="664.7296425835689" y="1473.0" type="qcurve" smooth="yes"/>
      <point x="834.7296425835689" y="1473.0"/>
      <point x="1003.6887699950107" y="1348.0"/>
      <point x="985.174437020622" y="1243.0" type="qcurve" smooth="yes"/>
      <point x="965.7784691426909" y="1133.0"/>
      <point x="799.8559616505904" y="1003.0"/>
      <point x="576.7400378820888" y="991.0" type="qcurve"/>
      <point x="570.744920538001" y="957.0" type="line"/>
    </contour>
  </outline>
</glyph>
<glyph name="breveinvertedcomb" format="2">
  <advance width="1024"/>
  <unicode hex="030F"/>
  <anchor x="512.0" y="914" name="_top"/>
  <anchor x="512.0" y="1465.0" name="top"/>
  <outline>
    <contour>
      <point x="344.97920940296024" y="1000.0" type="qcurve"/>
      <point x="105.90904087892898" y="1079.0" type="line"/>
      <point x="180.30012610094792" y="1223.0"/>
      <point x="463.97125543239645" y="1465.0"/>
      <point x="636.9712554323964" y="1465.0" type="qcurve" smooth="yes"/>
      <point x="792.9712554323964" y="1465.0"/>
      <point x="1001.6503387344087" y="1242.0"/>
      <point x="1031.556386917512" y="1077.0" type="qcurve"/>
      <point x="751.9792094029602" y="1000.0" type="line"/>
      <point x="728.0322886312988" y="1040.0"/>
      <point x="638.0225233194744" y="1108.0"/>
      <point x="571.0225233194744" y="1108.0" type="qcurve" smooth="yes"/>
      <point x="498.02252331947443" y="1108.0"/>
      <point x="384.3849425927158" y="1042.0"/>
    </contour>
  </outline>
</glyph>
<glyph name="horncomb" format="2">
  <advance width="1024"/>
  <unicode hex="031B"/>
  <outline>
    <contour>
      <point x="33.16286036753698" y="914.0" type="line"/>
      <point x="115.16286036753698" y="914.0" type="line" smooth="yes"/>
      <point x="162.16286036753695" y="914.0"/>
      <point x="240.51063167304176" y="950.0"/>
      <point x="250.3849425927158" y="1006.0" type="qcurve" smooth="yes"/>
      <point x="259.201291628139" y="1056.0"/>
      <point x="259.60214216198233" y="1132.0"/>
      <point x="256.1262404481955" y="1169.0" type="qcurve"/>
      <point x="574.1262404481955" y="1169.0" type="line"/>
      <point x="598.1311231041077" y="1135.0"/>
      <point x="629.264136168302" y="1028.0"/>
      <point x="614.9816507309163" y="947.0" type="qcurve" smooth="yes"/>
      <point x="594.8803749301513" y="833.0"/>
      <point x="363.83706101363714" y="725.0"/>
      <point x="218.83706101363714" y="725.0" type="qcurve" smooth="yes"/>
      <point x="148.83706101363714" y="725.0"/>
      <point x="42.481965724264086" y="740.0"/>
      <point x="4.59788949276566" y="752.0" type="qcurve"/>
    </contour>
  </outline>
</glyph>
<glyph name="dotbelowcomb" format="2">
  <advance width="1024"/>
  <unicode hex="0323"/>
  <outline>
    <contour>
      <point x="76.35084262015633" y="-395.0" type="qcurve" smooth="yes"/>
      <point x="93.45455974887744" y="-298.0"/>
      <point x="238.08237516381172" y="-164.0"/>
      <point x="355.0823751638117" y="-164.0" type="qcurve" smooth="yes"/>
      <point x="471.0823751638118" y="-164.0"/>
      <point x="569.4545597488774" y="-298.0"/>
      <point x="552.3508426201563" y="-395.0" type="qcurve" smooth="yes"/>
      <point x="536.1287603949776" y="-487.0"/>
      <point x="390.8535989414602" y="-619.0"/>
      <point x="274.8535989414602" y="-619.0" type="qcurve" smooth="yes"/>
      <point x="157.85359894146018" y="-619.0"/>
      <point x="60.128760394977576" y="-487.0"/>
    </contour>
  </outline>
</glyph>
<glyph name="dieresisbelowcomb" format="2">
  <advance width="1024"/>
  <unicode hex="0324"/>
  <anchor x="512.0" y="0" name="_bottom"/>
  <anchor x="512.0" y="-628.0" name="bottom"/>
  <outline>
    <contour>
      <point x="-201.29406209047065" y="-410.0" type="qcurve" smooth="yes"/>
      <point x="-184.71932590387493" y="-316.0"/>
      <point x="-39.796818411774495" y="-186.0"/>
      <point x="76.2031815882255" y="-186.0" type="qcurve" smooth="yes"/>
      <point x="193.2031815882255" y="-186.0"/>
      <point x="292.28067409612504" y="-316.0"/>
      <point x="275.7059379095293" y="-410.0" type="qcurve" smooth="yes"/>
      <point x="260.012836626476" y="-499.0"/>
      <point x="115.61931007650094" y="-626.0"/>
      <point x="-1.3806899234990766" y="-626.0" type="qcurve" smooth="yes"/>
      <point x="-117.38068992349908" y="-626.0"/>
      <point x="-216.98716337352403" y="-499.0"/>
    </contour>
    <contour>
      <point x="347.35328394811245" y="-412.0" type="qcurve" smooth="yes"/>
      <point x="363.92802013470816" y="-318.0"/>
      <point x="505.85052762680857" y="-188.0"/>
      <point x="624.8505276268086" y="-188.0" type="qcurve" smooth="yes"/>
      <point x="737.8505276268086" y="-188.0"/>
      <point x="839.9280201347082" y="-318.0"/>
      <point x="823.3532839481124" y="-412.0" type="qcurve" smooth="yes"/>
      <point x="807.6601826650591" y="-501.0"/>
      <point x="660.266656115084" y="-628.0"/>
      <point x="547.266656115084" y="-628.0" type="qcurve" smooth="yes"/>
      <point x="428.26665611508395" y="-628.0"/>
      <point x="331.66018266505904" y="-501.0"/>
    </contour>
  </outline>
</glyph>
<glyph name="macronbelowcomb" format="2">
  <advance width="1024"/>
  <unicode hex="0331"/>
  <anchor x="512.0" y="0" name="_bottom"/>
  <anchor x="512.0" y="-531.0" name="bottom"/>
  <outline>
    <contour>
      <point x="777.3117813728588" y="-123.0" type="line"/>
      <point x="705.3703732438051" y="-531.0" type="line"/>
      <point x="-124.6296267561949" y="-531.0" type="line"/>
      <point x="-52.6882186271412" y="-123.0" type="line"/>
    </contour>
  </outline>
</glyph>
<glyph name="quotedblright" format="2">
  <advance width="1454"/>
  <unicode hex="201D"/>
  <outline>
    <contour>
      <point x="863.084737872942" y="1458.0" type="line"/>
      <point x="831.6985353068352" y="1280.0" type="line" smooth="yes"/>
      <point x="803.3098914127723" y="1119.0"/>
      <point x="595.0518192549475" y="868.0"/>
      <point x="390.89258156993174" y="748.0" type="qcurve"/>
      <point x="86.21105693996338" y="988.0" type="line"/>
      <point x="130.1457710718443" y="1033.0"/>
      <point x="186.65522139032095" y="1172.0"/>
      <point x="205.87486228754364" y="1281.0" type="qcurve" smooth="yes"/>
      <point x="237.08473787294196" y="1458.0" type="line"/>
    </contour>
    <contour>
      <point x="1563.084737872942" y="1458.0" type="line"/>
      <point x="1531.698535306835" y="1280.0" type="line" smooth="yes"/>
      <point x="1503.3098914127722" y="1119.0"/>
      <point x="1295.0518192549475" y="868.0"/>
      <point x="1090.8925815699317" y="748.0" type="qcurve"/>
      <point x="786.2110569399633" y="988.0" type="line"/>
      <point x="830.1457710718444" y="1033.0"/>
      <point x="886.655221390321" y="1172.0"/>
      <point x="905.8748622875437" y="1281.0" type="qcurve" smooth="yes"/>
      <point x="937.084737872942" y="1458.0" type="line"/>
    </contour>
  </outline>
</glyph>
<glyph name="naira" format="2">
  <advance width="1850"/>
  <unicode hex="20A6"/>
  <outline>
    <contour>
      <point x="-2.648606011974067" y="830.0" type="line"/>
      <point x="26.797999766339586" y="997.0" type="line"/>
      <point x="357.79799976633956" y="997.0" type="line"/>
      <point x="356.03472995925495" y="987.0" type="line"/>
      <point x="1567.034729959255" y="987.0" type="line"/>
      <point x="1568.7979997663397" y="997.0" type="line"/>
      <point x="1918.1506537277564" y="999.0" type="line"/>
      <point x="1888.7040479494428" y="832.0" type="line"/>
      <point x="1539.3513939880258" y="830.0" type="line"/>
      <point x="1540.2330288915682" y="835.0" type="line"/>
      <point x="329.23302889156827" y="835.0" type="line"/>
      <point x="328.35139398802596" y="830.0" type="line"/>
    </contour>
    <contour>
      <point x="-62.59977945285216" y="490.0" type="line"/>
      <point x="-33.15317367453851" y="657.0" type="line"/>
      <point x="297.8468263254615" y="657.0" type="line"/>
      <point x="296.96519142191914" y="652.0" type="line"/>
      <point x="1507.9651914219191" y="652.0" type="line"/>
      <point x="1508.8468263254615" y="657.0" type="line"/>
      <point x="1858.1994802868785" y="659.0" type="line"/>
      <point x="1828.7528745085647" y="492.0" type="line"/>
      <point x="1479.400220547148" y="490.0" type="line"/>
      <point x="1481.1634903542324" y="500.0" type="line"/>
      <point x="270.1634903542325" y="500.0" type="line"/>
      <point x="268.40022054714785" y="490.0" type="line"/>
    </contour>
    <contour>
      <point x="1813.732083911525" y="1456.0" type="line"/>
      <point x="1557.0" y="0.0" type="line"/>
      <point x="1028.0" y="0.0" type="line"/>
      <point x="630.7235785730916" y="696.0" type="line"/>
      <point x="613.2958734317313" y="807.0" type="line"/>
      <point x="608.2958734317313" y="807.0" type="line"/>
      <point x="611.1921563030102" y="710.0" type="line"/>
      <point x="489.0" y="0.0" type="line"/>
      <point x="12.0" y="0.0" type="line"/>
      <point x="268.732083911525" y="1456.0" type="line"/>
      <point x="814.732083911525" y="1456.0" type="line"/>
      <point x="1199.711371933311" y="781.0" type="line"/>
      <point x="1221.0762325345086" y="698.0" type="line"/>
      <point x="1225.0762325345086" y="698.0" type="line"/>
      <point x="1227.1171051230667" y="823.0" type="line"/>
      <point x="1338.732083911525" y="1456.0" type="line"/>
    </contour>
  </outline>
</glyph>
<glyph name="won" format="2">
  <advance width="2659"/>
  <unicode hex="20A9"/>
  <outline>
    <contour>
      <point x="35.16774302344919" y="880.0" type="line"/>
      <point x="64.61434880176282" y="1047.0" type="line"/>
      <point x="352.61434880176284" y="1047.0" type="line"/>
      <point x="350.8510789946782" y="1037.0" type="line"/>
      <point x="2426.851078994678" y="1037.0" type="line"/>
      <point x="2428.614348801763" y="1047.0" type="line"/>
      <point x="2704.9670027631796" y="1049.0" type="line"/>
      <point x="2675.5203969848662" y="882.0" type="line"/>
      <point x="2399.167743023449" y="880.0" type="line"/>
      <point x="2400.0493779269914" y="885.0" type="line"/>
      <point x="324.0493779269915" y="885.0" type="line"/>
      <point x="323.1677430234492" y="880.0" type="line"/>
    </contour>
    <contour>
      <point x="-2.599779452852161" y="490.0" type="line"/>
      <point x="26.846826325461507" y="657.0" type="line"/>
      <point x="374.8468263254615" y="657.0" type="line"/>
      <point x="373.96519142191914" y="652.0" type="line"/>
      <point x="2279.9651914219194" y="652.0" type="line"/>
      <point x="2280.8468263254613" y="657.0" type="line"/>
      <point x="2597.1994802868785" y="659.0" type="line"/>
      <point x="2567.7528745085647" y="492.0" type="line"/>
      <point x="2251.400220547148" y="490.0" type="line"/>
      <point x="2253.1634903542326" y="500.0" type="line"/>
      <point x="347.1634903542325" y="500.0" type="line"/>
      <point x="345.40022054714785" y="490.0" type="line"/>
    </contour>
    <contour>
      <point x="330.0" y="0.0" type="line"/>
      <point x="88.73208391152502" y="1456.0" type="line"/>
      <point x="630.732083911525" y="1456.0" type="line"/>
      <point x="773.3831312514552" y="609.0" type="line"/>
      <point x="771.3953378912356" y="524.0" type="line"/>
      <point x="773.3953378912356" y="524.0" type="line"/>
      <point x="802.3831312514552" y="609.0" type="line"/>
      <point x="1248.732083911525" y="1456.0" type="line"/>
      <point x="1692.732083911525" y="1456.0" type="line"/>
      <point x="1861.383131251455" y="609.0" type="line"/>
      <point x="1861.3953378912356" y="524.0" type="line"/>
      <point x="1864.3953378912356" y="524.0" type="line"/>
      <point x="1893.383131251455" y="609.0" type="line"/>
      <point x="2312.732083911525" y="1456.0" type="line"/>
      <point x="2827.732083911525" y="1456.0" type="line"/>
      <point x="2074.0" y="0.0" type="line"/>
      <point x="1535.0" y="0.0" type="line"/>
      <point x="1366.5881241809413" y="820.0" type="line"/>
      <point x="1369.812647734076" y="895.0" type="line"/>
      <point x="1366.812647734076" y="895.0" type="line"/>
      <point x="1343.5881241809413" y="820.0" type="line"/>
      <point x="886.0" y="0.0" type="line"/>
    </contour>
  </outline>
</glyph>
<glyph name="uni20AD" format="2">
  <advance width="1961"/>
  <unicode hex="20AD"/>
  <outline>
    <contour>
      <point x="12.0" y="0.0" type="line"/>
      <point x="268.732083911525" y="1456.0" type="line"/>
      <point x="868.732083911525" y="1456.0" type="line"/>
      <point x="790.619231457675" y="1013.0" type="line"/>
      <point x="1455.732083911525" y="1456.0" type="line"/>
      <point x="2208.732083911525" y="1456.0" type="line"/>
      <point x="690.6418333959754" y="446.0" type="line"/>
      <point x="612.0" y="0.0" type="line"/>
    </contour>
    <contour>
      <point x="1235.0" y="0.0" type="line"/>
      <point x="675.668058016797" y="673.0" type="line"/>
      <point x="1168.5033076891734" y="1001.0" type="line"/>
      <point x="2016.0" y="0.0" type="line"/>
    </contour>
    <contour>
      <point x="176.43376915183768" y="666.0" type="line"/>
      <point x="-20.56623084816232" y="666.0" type="line"/>
      <point x="19.45999377265923" y="893.0" type="line"/>
      <point x="216.45999377265923" y="893.0" type="line"/>
    </contour>
    <contour>
      <point x="1899.4599937726593" y="893.0" type="line"/>
      <point x="1859.4337691518376" y="666.0" type="line"/>
      <point x="1126.4337691518376" y="666.0" type="line"/>
      <point x="1166.4599937726593" y="893.0" type="line"/>
    </contour>
  </outline>
</glyph>
<glyph name="uni20B1" format="2">
  <advance width="1927"/>
  <unicode hex="20B1"/>
  <outline>
    <contour>
      <point x="1214.1952276176617" y="279.0" type="qcurve" smooth="yes"/>
      <point x="347.1952276176617" y="279.0" type="line"/>
      <point x="414.72846122900387" y="662.0" type="line"/>
      <point x="1111.7284612290039" y="662.0" type="line" smooth="yes"/>
      <point x="1207.7284612290039" y="662.0"/>
      <point x="1303.8321783577248" y="759.0"/>
      <point x="1319.8779336021953" y="850.0" type="qcurve" smooth="yes"/>
      <point x="1337.3343046923333" y="949.0"/>
      <point x="1273.8510789946781" y="1037.0"/>
      <point x="1177.8510789946781" y="1037.0" type="qcurve" smooth="yes"/>
      <point x="794.8510789946781" y="1037.0" type="line"/>
      <point x="612.0" y="0.0" type="line"/>
      <point x="12.0" y="0.0" type="line"/>
      <point x="268.732083911525" y="1456.0" type="line"/>
      <point x="1434.732083911525" y="1456.0" type="line" smooth="yes"/>
      <point x="1727.732083911525" y="1456.0"/>
      <point x="1970.0707198919008" y="1146.0"/>
      <point x="1920.3465113321136" y="864.0" type="qcurve" smooth="yes"/>
      <point x="1873.443534463662" y="598.0"/>
      <point x="1530.1952276176617" y="279.0"/>
    </contour>
    <contour>
      <point x="30.752244521869272" y="906.0" type="line"/>
      <point x="63.725389914352206" y="1093.0" type="line"/>
      <point x="265.7253899143522" y="1093.0" type="line"/>
      <point x="261.31721539664056" y="1068.0" type="line"/>
      <point x="1833.3172153966407" y="1068.0" type="line"/>
      <point x="1837.7253899143523" y="1093.0" type="line"/>
      <point x="2070.0780438757693" y="1095.0" type="line"/>
      <point x="2037.104898483286" y="908.0" type="line"/>
      <point x="1824.7522445218692" y="906.0" type="line"/>
      <point x="1827.3971492324963" y="921.0" type="line"/>
      <point x="235.39714923249625" y="921.0" type="line"/>
      <point x="232.75224452186927" y="906.0" type="line"/>
    </contour>
    <contour>
      <point x="-22.145849690670218" y="606.0" type="line"/>
      <point x="10.827295701812716" y="793.0" type="line"/>
      <point x="212.82729570181272" y="793.0" type="line"/>
      <point x="210.18239099118574" y="778.0" type="line"/>
      <point x="1802.1823909911857" y="778.0" type="line"/>
      <point x="1804.8272957018128" y="793.0" type="line"/>
      <point x="2017.1799496632298" y="795.0" type="line"/>
      <point x="1984.2068042707465" y="608.0" type="line"/>
      <point x="1731.8541503093297" y="606.0" type="line"/>
      <point x="1736.085997846333" y="630.0" type="line"/>
      <point x="184.08599784633293" y="630.0" type="line"/>
      <point x="179.85415030932978" y="606.0" type="line"/>
    </contour>
  </outline>
</glyph>
<glyph name="ruble" format="2">
  <advance width="1927"/>
  <unicode hex="20BD"/>
  <outline>
    <contour>
      <point x="1231.8279256885082" y="379.0" type="qcurve" smooth="yes"/>
      <point x="-41.17207431149177" y="379.0" type="line"/>
      <point x="26.3611592998503" y="762.0" type="line"/>
      <point x="1129.3611592998502" y="762.0" type="line" smooth="yes"/>
      <point x="1221.3611592998502" y="762.0"/>
      <point x="1315.8224130459005" y="827.0"/>
      <point x="1328.6942826376185" y="900.0" type="qcurve" smooth="yes"/>
      <point x="1341.3898252486279" y="972.0"/>
      <point x="1269.8510789946781" y="1037.0"/>
      <point x="1177.8510789946781" y="1037.0" type="qcurve" smooth="yes"/>
      <point x="794.8510789946781" y="1037.0" type="line"/>
      <point x="612.0" y="0.0" type="line"/>
      <point x="12.0" y="0.0" type="line"/>
      <point x="268.732083911525" y="1456.0" type="line"/>
      <point x="1434.732083911525" y="1456.0" type="line" smooth="yes"/>
      <point x="1745.732083911525" y="1456.0"/>
      <point x="1979.592376850158" y="1200.0"/>
      <point x="1929.1628603675372" y="914.0" type="qcurve" smooth="yes"/>
      <point x="1880.4966136920007" y="638.0"/>
      <point x="1550.885887572759" y="385.0"/>
    </contour>
    <contour>
      <point x="983.1299417495427" y="324.0" type="line"/>
      <point x="949.9804693763513" y="136.0" type="line"/>
      <point x="-74.01953062364876" y="136.0" type="line"/>
      <point x="-40.87005825045735" y="324.0" type="line"/>
    </contour>
  </outline>
</glyph>
<glyph name="bulletoperator" format="2">
  <advance width="856"/>
  <unicode hex="2219"/>
  <outline>
    <contour>
      <point x="148.30075608764344" y="773.0" type="qcurve" smooth="yes"/>
      <point x="168.75468584982536" y="889.0"/>
      <point x="361.0829265316813" y="1061.0"/>
      <point x="487.0829265316813" y="1061.0" type="qcurve" smooth="yes"/>
      <point x="613.0829265316813" y="1061.0"/>
      <point x="744.7546858498254" y="889.0"/>
      <point x="724.3007560876434" y="773.0" type="qcurve" smooth="yes"/>
      <point x="704.1994802868784" y="659.0"/>
      <point x="511.8712396050224" y="487.0"/>
      <point x="385.8712396050224" y="487.0" type="qcurve" smooth="yes"/>
      <point x="259.8712396050224" y="487.0"/>
      <point x="128.19948028687838" y="659.0"/>
    </contour>
  </outline>
</glyph>
<glyph name="notequal" format="2">
  <advance width="1135"/>
  <unicode hex="2260"/>
  <outline>
    <contour>
      <point x="1148.50756035839" y="1381.0" type="line"/>
      <point x="776.8175303899884" y="861.0" type="line"/>
      <point x="744.7040479494428" y="832.0" type="line"/>
      <point x="465.28673810660234" y="461.0" type="line"/>
      <point x="457.05489056959914" y="437.0" type="line"/>
      <point x="59.42770514136038" y="-111.0" type="line"/>
      <point x="-64.46613640196242" y="-31.0" type="line"/>
      <point x="279.81816037668386" y="447.0" type="line"/>
      <point x="306.6973539522701" y="469.0" type="line"/>
      <point x="576.998740026609" y="828.0" type="line"/>
      <point x="594.3465113321138" y="864.0" type="line"/>
      <point x="1024.6137188150674" y="1461.0" type="line"/>
    </contour>
    <contour>
      <point x="-42.90604818310328" y="165.0" type="line"/>
      <point x="43.49417236404457" y="655.0" type="line"/>
      <point x="1066.4941723640445" y="655.0" type="line"/>
      <point x="980.0939518168966" y="165.0" type="line"/>
    </contour>
    <contour>
      <point x="58.65829270497255" y="741.0" type="line"/>
      <point x="145.0585132521204" y="1231.0" type="line"/>
      <point x="1168.0585132521203" y="1231.0" type="line"/>
      <point x="1081.6582927049726" y="741.0" type="line"/>
    </contour>
  </outline>
</glyph>
<glyph name="greaterequal" format="2">
  <advance width="956"/>
  <unicode hex="2265"/>
  <outline>
    <contour>
      <point x="-69.88651755945452" y="29.0" type="line"/>
      <point x="19.68758864044571" y="537.0" type="line"/>
      <point x="444.6076548045901" y="684.0" type="line"/>
      <point x="69.76445116164973" y="821.0" type="line"/>
      <point x="159.33855736155" y="1329.0" type="line"/>
      <point x="938.0444952710793" y="919.0" type="line"/>
      <point x="855.1708143381007" y="449.0" type="line"/>
    </contour>
    <contour>
      <point x="776.1763269807085" y="1.0" type="line"/>
      <point x="-93.82367301929153" y="1.0" type="line"/>
      <point x="-37.5753661732912" y="320.0" type="line"/>
      <point x="832.4246338267088" y="320.0" type="line"/>
    </contour>
  </outline>
</glyph>
<glyph name="leftanglebracket" format="2">
  <advance width="1511"/>
  <unicode hex="27E8"/>
  <outline>
    <contour>
      <point x="-49.48873834026277" y="536.0" type="line"/>
      <point x="-26.742557828870787" y="665.0" type="line"/>
      <point x="1222.314144081989" y="1499.0" type="line"/>
      <point x="1599.882186271412" y="1230.0" type="line"/>
      <point x="753.5014963479128" y="604.0" type="line"/>
      <point x="1377.357536617329" y="-32.0" type="line"/>
      <point x="904.3965978646268" y="-304.0" type="line"/>
    </contour>
  </outline>
</glyph>
<glyph name="acutecomb.case" format="2">
  <advance width="1024"/>
  <anchor x="512.0" y="1456" name="_top"/>
  <anchor x="512.0" y="2087.0" name="top"/>
  <outline>
    <contour>
      <point x="339.87179097289203" y="1667.0" type="line"/>
      <point x="762.9291228704474" y="2087.0" type="line"/>
      <point x="1257.3159554232495" y="1851.0" type="line"/>
      <point x="808.4251851945784" y="1500.0" type="line"/>
    </contour>
  </outline>
</glyph>
<glyph name="acutecombstack.case" format="2">
  <advance width="1024"/>
  <anchor x="512.0" y="1456" name="_top"/>
  <anchor x="512.0" y="2187.0" name="top"/>
  <outline>
    <contour>
      <point x="293.44896848744384" y="1789.0" type="line"/>
      <point x="758.6271068094129" y="2187.0" type="line"/>
      <point x="1165.7265712689173" y="1904.0" type="line"/>
      <point x="724.4782644229169" y="1585.0" type="line"/>
    </contour>
  </outline>
</glyph>
<glyph name="breve.cyr.case" format="2">
  <advance width="1028"/>
  <anchor x="514.0" y="1456" name="_top"/>
  <anchor x="514.0" y="1456" name="top"/>
  <outline>
    <contour>
      <point x="708.6783746964909" y="1830.0" type="qcurve" smooth="yes"/>
      <point x="778.6783746964909" y="1830.0"/>
      <point x="893.6661680567104" y="1915.0"/>
      <point x="921.656402744886" y="1983.0" type="qcurve"/>
      <point x="1243.4947237319143" y="1880.0" type="line"/>
      <point x="1135.995038725262" y="1673.0"/>
      <point x="832.4904710626975" y="1500.0"/>
      <point x="650.4904710626975" y="1500.0" type="qcurve" smooth="yes"/>
      <point x="468.49047106269745" y="1500.0"/>
      <point x="225.9950387252619" y="1673.0"/>
      <point x="191.49472373191418" y="1880.0" type="qcurve"/>
      <point x="549.656402744886" y="1983.0" type="line"/>
      <point x="553.6661680567104" y="1915.0"/>
      <point x="638.6783746964909" y="1830.0"/>
    </contour>
  </outline>
</glyph>
<glyph name="breve.cyr" format="2">
  <advance width="1062"/>
  <anchor x="531.0" y="914" name="_top"/>
  <anchor x="531.0" y="914" name="top"/>
  <outline>
    <contour>
      <point x="620.5148843422585" y="1330.0" type="qcurve" smooth="yes"/>
      <point x="690.5148843422585" y="1330.0"/>
      <point x="805.5517278648035" y="1426.551722043"/>
      <point x="837.0194520048228" y="1503.0" type="qcurve"/>
      <point x="1158.8577729918509" y="1400.0" type="line"/>
      <point x="1046.2823782916166" y="1183.2262792072"/>
      <point x="744.326980708465" y="1000.0"/>
      <point x="562.326980708465" y="1000.0" type="qcurve" smooth="yes"/>
      <point x="380.326980708465" y="1000.0"/>
      <point x="142.9870563234167" y="1183.2262792072"/>
      <point x="106.85777299185096" y="1400.0" type="qcurve"/>
      <point x="465.0194520048228" y="1503.0" type="line"/>
      <point x="469.5273880798035" y="1426.551722043"/>
      <point x="550.5148843422585" y="1330.0"/>
    </contour>
  </outline>
</glyph>
<glyph name="breveacutecomb.case" format="2">
  <advance width="1024"/>
  <anchor x="512.0" y="1456" name="_top"/>
  <outline>
    <contour>
      <point x="943.784533153168" y="1910.0" type="qcurve"/>
      <point x="1200.617971484284" y="1841.0" type="line"/>
      <point x="1127.4007719150175" y="1715.0"/>
      <point x="833.4904710626975" y="1500.0"/>
      <point x="648.4904710626975" y="1500.0" type="qcurve" smooth="yes"/>
      <point x="482.49047106269745" y="1500.0"/>
      <point x="252.22688626226505" y="1697.0"/>
      <point x="215.7942984649925" y="1842.0" type="qcurve"/>
      <point x="510.7845331531681" y="1910.0" type="line"/>
      <point x="536.6130888283718" y="1875.0"/>
      <point x="636.0334699858639" y="1815.0"/>
      <point x="707.0334699858639" y="1815.0" type="qcurve" smooth="yes"/>
      <point x="784.0334699858639" y="1815.0"/>
      <point x="903.2604348669549" y="1873.0"/>
    </contour>
    <contour>
      <point x="438.5715862531182" y="2164.0" type="line"/>
      <point x="903.7497245750874" y="2562.0" type="line"/>
      <point x="1310.8491890345917" y="2279.0" type="line"/>
      <point x="869.6008821885914" y="1960.0" type="line"/>
    </contour>
  </outline>
</glyph>
<glyph name="brevecomb.case" format="2">
  <advance width="1024"/>
  <outline>
    <contour>
      <point x="980.7070406452685" y="2040.0" type="qcurve"/>
      <point x="1250.4245552078828" y="1959.0" type="line"/>
      <point x="1170.5044890437384" y="1812.0"/>
      <point x="855.7753978280392" y="1564.0"/>
      <point x="660.7753978280392" y="1564.0" type="qcurve" smooth="yes"/>
      <point x="485.7753978280392" y="1564.0"/>
      <point x="245.9779494295692" y="1792.0"/>
      <point x="210.7772091692998" y="1961.0" type="qcurve"/>
      <point x="522.7070406452685" y="2040.0" type="line"/>
      <point x="550.3013074555131" y="1998.0"/>
      <point x="653.1347457866289" y="1929.0"/>
      <point x="728.1347457866289" y="1929.0" type="qcurve" smooth="yes"/>
      <point x="810.1347457866289" y="1929.0"/>
      <point x="937.9486534940961" y="1996.0"/>
    </contour>
  </outline>
</glyph>
<glyph name="brevehookabovecomb.case" format="2">
  <advance width="1024"/>
  <anchor x="512.0" y="1456" name="_top"/>
  <outline>
    <contour>
      <point x="943.784533153168" y="1910.0" type="qcurve"/>
      <point x="1200.617971484284" y="1841.0" type="line"/>
      <point x="1127.4007719150175" y="1715.0"/>
      <point x="833.4904710626975" y="1500.0"/>
      <point x="648.4904710626975" y="1500.0" type="qcurve" smooth="yes"/>
      <point x="482.49047106269745" y="1500.0"/>
      <point x="252.22688626226505" y="1697.0"/>
      <point x="215.7942984649925" y="1842.0" type="qcurve"/>
      <point x="510.7845331531681" y="1910.0" type="line"/>
      <point x="536.6130888283718" y="1875.0"/>
      <point x="636.0334699858639" y="1815.0"/>
      <point x="707.0334699858639" y="1815.0" type="qcurve" smooth="yes"/>
      <point x="784.0334699858639" y="1815.0"/>
      <point x="903.2604348669549" y="1873.0"/>
    </contour>
    <contour>
      <point x="549.6008821885914" y="1960.0" type="line"/>
      <point x="561.9437708381839" y="2030.0" type="line" smooth="yes"/>
      <point x="576.5789102369865" y="2113.0"/>
      <point x="686.5087417129553" y="2192.0"/>
      <point x="755.0377226550806" y="2195.0" type="qcurve" smooth="yes"/>
      <point x="801.919357558623" y="2200.0"/>
      <point x="830.211608307833" y="2213.0"/>
      <point x="833.5618209412938" y="2232.0" type="qcurve" smooth="yes"/>
      <point x="835.8540716905038" y="2245.0"/>
      <point x="799.0279573432563" y="2263.0"/>
      <point x="752.0279573432563" y="2263.0" type="qcurve" smooth="yes"/>
      <point x="698.0279573432563" y="2263.0"/>
      <point x="574.2671288641277" y="2236.0"/>
      <point x="562.7381479220023" y="2233.0" type="qcurve"/>
      <point x="519.4745631215699" y="2430.0" type="line"/>
      <point x="563.3537566971561" y="2452.0"/>
      <point x="768.641124790454" y="2499.0"/>
      <point x="877.641124790454" y="2499.0" type="qcurve" smooth="yes"/>
      <point x="1038.641124790454" y="2499.0"/>
      <point x="1193.542290317645" y="2368.0"/>
      <point x="1174.146322439714" y="2258.0" type="qcurve" smooth="yes"/>
      <point x="1153.8687196582405" y="2143.0"/>
      <point x="996.0645772625976" y="2008.0"/>
      <point x="786.9486534940961" y="1996.0" type="qcurve"/>
      <point x="780.6008821885914" y="1960.0" type="line"/>
    </contour>
  </outline>
</glyph>
<glyph name="brevetildecomb" format="2">
  <advance width="1024"/>
  <anchor x="512.0" y="914" name="_top"/>
  <outline>
    <contour>
      <point x="874.8455663520705" y="1485.0" type="qcurve"/>
      <point x="1135.3867539339763" y="1403.0" type="line"/>
      <point x="1055.7613798469981" y="1252.0"/>
      <point x="749.326980708465" y="1000.0"/>
      <point x="561.326980708465" y="1000.0" type="qcurve" smooth="yes"/>
      <point x="392.32698070846504" y="1000.0"/>
      <point x="163.41116721353728" y="1233.0"/>
      <point x="129.7394078953933" y="1405.0" type="qcurve"/>
      <point x="432.8455663520705" y="1485.0" type="line"/>
      <point x="459.4398331623149" y="1443.0"/>
      <point x="556.9206175320139" y="1372.0"/>
      <point x="629.9206175320139" y="1372.0" type="qcurve" smooth="yes"/>
      <point x="709.9206175320139" y="1372.0"/>
      <point x="832.087179200898" y="1441.0"/>
    </contour>
    <contour>
      <point x="166.98771474139363" y="1724.0" type="line"/>
      <point x="233.08899054215863" y="1838.0"/>
      <point x="449.7698851854316" y="2012.0"/>
      <point x="546.7698851854316" y="2012.0" type="qcurve" smooth="yes"/>
      <point x="603.7698851854316" y="2012.0"/>
      <point x="703.36171066772" y="1987.0"/>
      <point x="749.3061901114252" y="1964.0" type="qcurve" smooth="yes"/>
      <point x="792.6033235165474" y="1943.0"/>
      <point x="892.8449363653749" y="1899.0"/>
      <point x="945.8449363653749" y="1899.0" type="qcurve" smooth="yes"/>
      <point x="1001.8449363653749" y="1899.0"/>
      <point x="1107.8376123815067" y="1950.0"/>
      <point x="1145.1853836870114" y="1986.0" type="qcurve"/>
      <point x="1221.6252954681522" y="1790.0" type="line"/>
      <point x="1149.937076841011" y="1667.0"/>
      <point x="959.6619153874938" y="1535.0"/>
      <point x="862.6619153874938" y="1535.0" type="qcurve" smooth="yes"/>
      <point x="793.6619153874938" y="1535.0"/>
      <point x="672.5966295193747" y="1580.0"/>
      <point x="632.5941881914185" y="1597.0" type="qcurve" smooth="yes"/>
      <point x="588.9444008248794" y="1616.0"/>
      <point x="500.46849911109257" y="1653.0"/>
      <point x="460.46849911109257" y="1653.0" type="qcurve" smooth="yes"/>
      <point x="396.46849911109257" y="1653.0"/>
      <point x="271.24397555795775" y="1578.0"/>
      <point x="241.13049311741224" y="1549.0" type="qcurve"/>
    </contour>
  </outline>
</glyph>
<glyph name="caroncomb.case" format="2">
  <advance width="1024"/>
  <outline>
    <contour>
      <point x="556.4203025386662" y="1579.0" type="line"/>
      <point x="155.82296441377014" y="2052.0" type="line"/>
      <point x="616.8229644137701" y="2052.0" type="line"/>
      <point x="725.4825170921337" y="1965.0" type="line"/>
      <point x="864.8229644137701" y="2052.0" type="line"/>
      <point x="1321.82296441377" y="2052.0" type="line"/>
      <point x="760.4203025386662" y="1579.0" type="line"/>
    </contour>
  </outline>
</glyph>
<glyph name="circumflexcomb.case" format="2">
  <advance width="1024"/>
  <outline>
    <contour>
      <point x="837.8229644137701" y="2052.0" type="line"/>
      <point x="1238.4203025386662" y="1579.0" type="line"/>
      <point x="777.4203025386662" y="1579.0" type="line"/>
      <point x="668.7607498603027" y="1666.0" type="line"/>
      <point x="529.4203025386662" y="1579.0" type="line"/>
      <point x="72.42030253866619" y="1579.0" type="line"/>
      <point x="633.8229644137701" y="2052.0" type="line"/>
    </contour>
  </outline>
</glyph>
<glyph name="commaaccentcomb.case" format="2">
  <advance width="1024"/>
  <outline>
    <contour>
      <point x="-124.43621047979377" y="-649.0" type="line"/>
      <point x="-72.09820448611342" y="-545.0"/>
      <point x="19.99330600282721" y="-363.0"/>
      <point x="69.56315953351071" y="-235.0" type="qcurve"/>
      <point x="686.9158134949276" y="-233.0" type="line"/>
      <point x="446.03480857808086" y="-652.0" type="line"/>
    </contour>
  </outline>
</glyph>
<glyph name="dieresiscombstack.case" format="2">
  <advance width="1024"/>
  <outline>
    <contour>
      <point x="202.50448904373854" y="1812.0" type="qcurve" smooth="yes"/>
      <point x="217.66860938466652" y="1898.0"/>
      <point x="356.6515200889739" y="2017.0"/>
      <point x="472.65152008897394" y="2017.0" type="qcurve" smooth="yes"/>
      <point x="585.6515200889739" y="2017.0"/>
      <point x="683.6686093846665" y="1898.0"/>
      <point x="668.5044890437385" y="1812.0" type="qcurve" smooth="yes"/>
      <point x="654.2220036063529" y="1731.0"/>
      <point x="514.5917468634625" y="1614.0"/>
      <point x="401.5917468634625" y="1614.0" type="qcurve" smooth="yes"/>
      <point x="285.59174686346245" y="1614.0"/>
      <point x="188.22200360635287" y="1731.0"/>
    </contour>
    <contour>
      <point x="738.1518350823217" y="1810.0" type="qcurve" smooth="yes"/>
      <point x="753.3159554232495" y="1896.0"/>
      <point x="891.298866127557" y="2015.0"/>
      <point x="1005.298866127557" y="2015.0" type="qcurve" smooth="yes"/>
      <point x="1116.298866127557" y="2015.0"/>
      <point x="1217.3159554232495" y="1896.0"/>
      <point x="1202.1518350823217" y="1810.0" type="qcurve" smooth="yes"/>
      <point x="1187.869349644936" y="1729.0"/>
      <point x="1045.2390929020455" y="1612.0"/>
      <point x="934.2390929020455" y="1612.0" type="qcurve" smooth="yes"/>
      <point x="820.2390929020455" y="1612.0"/>
      <point x="723.8693496449359" y="1729.0"/>
    </contour>
  </outline>
</glyph>
<glyph name="dotaccentcomb.case" format="2">
  <advance width="1024"/>
  <anchor x="512.0" y="1456" name="_top"/>
  <anchor x="512.0" y="2001.0" name="top"/>
  <outline>
    <contour>
      <point x="451" y="1767.0" type="qcurve" smooth="yes"/>
      <point x="468" y="1865.0"/>
      <point x="623" y="2001.0"/>
      <point x="750" y="2001.0" type="qcurve" smooth="yes"/>
      <point x="876" y="2001.0"/>
      <point x="984" y="1865.0"/>
      <point x="967" y="1767.0" type="qcurve" smooth="yes"/>
      <point x="950" y="1674.0"/>
      <point x="795" y="1540.0"/>
      <point x="669" y="1540.0" type="qcurve" smooth="yes"/>
      <point x="542" y="1540.0"/>
      <point x="434" y="1674.0"/>
    </contour>
  </outline>
</glyph>
<glyph name="dotaccentcombstack.case" format="2">
  <advance width="1024"/>
  <outline>
    <contour>
      <point x="470.50448904373854" y="1812.0" type="qcurve" smooth="yes"/>
      <point x="485.6686093846665" y="1898.0"/>
      <point x="624.6515200889739" y="2017.0"/>
      <point x="739.6515200889739" y="2017.0" type="qcurve" smooth="yes"/>
      <point x="852.6515200889739" y="2017.0"/>
      <point x="950.6686093846665" y="1898.0"/>
      <point x="935.5044890437384" y="1812.0" type="qcurve" smooth="yes"/>
      <point x="921.2220036063529" y="1731.0"/>
      <point x="781.5917468634625" y="1614.0"/>
      <point x="668.5917468634625" y="1614.0" type="qcurve" smooth="yes"/>
      <point x="553.5917468634625" y="1614.0"/>
      <point x="456.2220036063529" y="1731.0"/>
    </contour>
  </outline>
</glyph>
<glyph name="engtail" format="2">
  <advance width="629"/>
  <outline>
    <contour>
      <point x="381.8736809329786" y="470.0" type="line"/>
      <point x="565.8736809329786" y="470.0" type="line"/>
      <point x="457.2562608165641" y="-146.0" type="line" smooth="yes"/>
      <point x="432.0415025752536" y="-289.0"/>
      <point x="174.88714754615" y="-443.0"/>
      <point x="-38.11285245384998" y="-443.0" type="qcurve" smooth="yes"/>
      <point x="-143.11285245385" y="-443.0"/>
      <point x="-323.4124271869283" y="-405.0"/>
      <point x="-385.06465588142356" y="-369.0" type="qcurve"/>
      <point x="-293.86698693580576" y="-107.0" type="line"/>
      <point x="-265.80658372359886" y="-118.0"/>
      <point x="-219.92250749210046" y="-130.0"/>
      <point x="-200.92250749210046" y="-130.0" type="qcurve" smooth="yes"/>
      <point x="-158.92250749210044" y="-130.0"/>
      <point x="-110.16656166888409" y="-69.0"/>
      <point x="-98.70530792283387" y="-4.0" type="qcurve" smooth="yes"/>
      <point x="-87.77303511890904" y="58.0"/>
      <point x="-22.17939829536006" y="430.0"/>
      <point x="-22.17939829536006" y="430.0" type="qcurve"/>
    </contour>
  </outline>
</glyph>
<glyph name="gravecomb.case" format="2">
  <advance width="1024"/>
  <outline>
    <contour>
      <point x="567.4251851945784" y="1545.0" type="line"/>
      <point x="242.3159554232496" y="1896.0" type="line"/>
      <point x="819.9291228704474" y="2132.0" type="line"/>
      <point x="1094.871790972892" y="1712.0" type="line"/>
    </contour>
  </outline>
</glyph>
<glyph name="hookabovecomb.case" format="2">
  <advance width="1024"/>
  <outline>
    <contour>
      <point x="437.01456934891064" y="1537.0" type="line"/>
      <point x="449.35745799850315" y="1607.0" type="line" smooth="yes"/>
      <point x="463.81627041659726" y="1689.0"/>
      <point x="587.746101892566" y="1768.0"/>
      <point x="666.4514098154" y="1772.0" type="qcurve" smooth="yes"/>
      <point x="721.1567177382337" y="1776.0"/>
      <point x="752.4489684874438" y="1789.0"/>
      <point x="755.6228541401963" y="1807.0" type="qcurve" smooth="yes"/>
      <point x="758.0914318701148" y="1821.0"/>
      <point x="716.265317522867" y="1839.0"/>
      <point x="661.265317522867" y="1839.0" type="qcurve" smooth="yes"/>
      <point x="599.265317522867" y="1839.0"/>
      <point x="457.50448904373854" y="1812.0"/>
      <point x="443.97550810161306" y="1809.0" type="qcurve"/>
      <point x="388.5355963204722" y="2005.0" type="line"/>
      <point x="439.23846291535006" y="2026.0"/>
      <point x="674.7021579893564" y="2074.0"/>
      <point x="799.7021579893564" y="2074.0" type="qcurve" smooth="yes"/>
      <point x="984.7021579893562" y="2074.0"/>
      <point x="1168.779650497256" y="1944.0"/>
      <point x="1149.3836826193246" y="1834.0" type="qcurve" smooth="yes"/>
      <point x="1129.1060798378512" y="1719.0"/>
      <point x="949.4782644229169" y="1585.0"/>
      <point x="709.3623406544154" y="1573.0" type="qcurve"/>
      <point x="703.0145693489106" y="1537.0" type="line"/>
    </contour>
  </outline>
</glyph>
<glyph name="macroncombstack.case" format="2">
  <advance width="1024"/>
  <anchor x="512.0" y="1456" name="_top"/>
  <anchor x="512.0" y="1832.0" name="top"/>
  <outline>
    <contour>
      <point x="280" y="1500.0" type="line"/>
      <point x="339" y="1832.0" type="line"/>
      <point x="1117" y="1832.0" type="line"/>
      <point x="1058" y="1500.0" type="line"/>
    </contour>
  </outline>
</glyph>
<glyph name="nine.prop" format="2">
  <advance width="1799"/>
  <outline>
    <contour>
      <point x="115.80532375020786" y="946.0" type="qcurve" smooth="yes"/>
      <point x="158.06583723598868" y="1180.0"/>
      <point x="674.2586235256942" y="1476.0"/>
      <point x="1036.2586235256942" y="1476.0" type="qcurve" smooth="yes"/>
      <point x="1397.2586235256942" y="1476.0"/>
      <point x="1796.2446055446533" y="1164.0"/>
      <point x="1738.9383368144022" y="839.0" type="qcurve" smooth="yes"/>
      <point x="1733.6485273931482" y="809.0" type="line" smooth="yes"/>
      <point x="1668.5838715117245" y="440.0"/>
      <point x="910.9444794437054" y="-23.0"/>
      <point x="235.9444794437053" y="-23.0" type="qcurve" smooth="yes"/>
      <point x="163.9444794437053" y="-23.0" type="line"/>
      <point x="238.00181134126058" y="397.0" type="line"/>
      <point x="291.0018113412606" y="397.0" type="line" smooth="yes"/>
      <point x="713.0018113412606" y="397.0"/>
      <point x="1141.8565916372859" y="589.0"/>
      <point x="1197.5759175411608" y="905.0" type="qcurve" smooth="yes"/>
      <point x="1201.10245715533" y="925.0" type="line" smooth="yes"/>
      <point x="1217.6771933419259" y="1019.0"/>
      <point x="1091.430697837186" y="1097.0"/>
      <point x="962.430697837186" y="1097.0" type="qcurve" smooth="yes"/>
      <point x="833.430697837186" y="1097.0"/>
      <point x="682.6771933419258" y="1019.0"/>
      <point x="666.6314380974554" y="928.0" type="qcurve" smooth="yes"/>
      <point x="650.2330288915682" y="835.0"/>
      <point x="752.5374862805588" y="763.0"/>
      <point x="894.5374862805588" y="763.0" type="qcurve" smooth="yes"/>
      <point x="1036.5374862805588" y="763.0"/>
      <point x="1186.290990775819" y="841.0"/>
      <point x="1212.2110569399633" y="988.0" type="qcurve"/>
      <point x="1277.2110569399633" y="988.0" type="line"/>
      <point x="1228.544810264427" y="712.0"/>
      <point x="812.8687982770664" y="504.0"/>
      <point x="627.8687982770664" y="504.0" type="qcurve" smooth="yes"/>
      <point x="354.86879827706633" y="504.0"/>
      <point x="73.54481026442704" y="712.0"/>
    </contour>
  </outline>
</glyph>
<glyph name="ogonekcomb.case" format="2">
  <advance width="1024"/>
  <anchor x="659.0" y="0" name="_ogonek"/>
  <anchor x="659.0" y="-538.0" name="bottom"/>
  <outline>
    <contour>
      <point x="-81" y="-304.0" type="qcurve" smooth="yes"/>
      <point x="-64" y="-207.0"/>
      <point x="160" y="-14.0"/>
      <point x="417" y="63.0" type="qcurve"/>
      <point x="659" y="0.0" type="line"/>
      <point x="603" y="-33.0"/>
      <point x="505" y="-111.0"/>
      <point x="497" y="-157.0" type="qcurve" smooth="yes"/>
      <point x="493" y="-180.0"/>
      <point x="530" y="-207.0"/>
      <point x="576" y="-207.0" type="qcurve" smooth="yes"/>
      <point x="616" y="-207.0"/>
      <point x="680" y="-194.0"/>
      <point x="697" y="-187.0" type="qcurve"/>
      <point x="677" y="-484.0" type="line"/>
      <point x="617" y="-503.0"/>
      <point x="438" y="-538.0"/>
      <point x="306" y="-538.0" type="qcurve" smooth="yes"/>
      <point x="126" y="-538.0"/>
      <point x="-101" y="-418.0"/>
    </contour>
  </outline>
</glyph>
<glyph name="one.prop" format="2">
  <advance width="1366"/>
  <outline>
    <contour>
      <point x="503.0" y="0.0" type="line"/>
      <point x="668.0420539431232" y="936.0" type="line"/>
      <point x="147.0664672226842" y="766.0" type="line"/>
      <point x="230.64545607849658" y="1240.0" type="line"/>
      <point x="848.6161601430234" y="1444.0" type="line"/>
      <point x="1352.6161601430235" y="1444.0" type="line"/>
      <point x="1098.0" y="0.0" type="line"/>
    </contour>
  </outline>
</glyph>
<glyph name="ringcomb.case" format="2">
  <advance width="1024"/>
  <outline>
    <contour>
      <point x="340.6155301563279" y="1858.0" type="qcurve"/>
      <point x="364.5959995326792" y="1994.0"/>
      <point x="611.8034337901213" y="2188.0"/>
      <point x="769.8034337901213" y="2188.0" type="qcurve" smooth="yes"/>
      <point x="924.8034337901213" y="2188.0"/>
      <point x="1106.5959995326791" y="1994.0"/>
      <point x="1082.6155301563278" y="1858.0" type="qcurve" smooth="yes"/>
      <point x="1058.1060798378512" y="1719.0"/>
      <point x="809.3092614260768" y="1533.0"/>
      <point x="654.3092614260768" y="1533.0" type="qcurve" smooth="yes"/>
      <point x="496.3092614260768" y="1533.0"/>
      <point x="316.10607983785127" y="1719.0"/>
    </contour>
    <contour>
      <point x="603.7918571370365" y="1859.0" type="qcurve"/>
      <point x="597.0914318701148" y="1821.0"/>
      <point x="647.5118130276069" y="1761.0"/>
      <point x="694.5118130276069" y="1761.0" type="qcurve" smooth="yes"/>
      <point x="741.5118130276069" y="1761.0"/>
      <point x="812.7387779086978" y="1819.0"/>
      <point x="819.7918571370365" y="1859.0" type="qcurve" smooth="yes"/>
      <point x="826.6686093846665" y="1898.0"/>
      <point x="776.4245552078828" y="1959.0"/>
      <point x="729.4245552078828" y="1959.0" type="qcurve" smooth="yes"/>
      <point x="682.4245552078828" y="1959.0"/>
      <point x="610.6686093846665" y="1898.0"/>
    </contour>
  </outline>
</glyph>
<glyph name="tildecomb.case" format="2">
  <advance width="1024"/>
  <outline>
    <contour>
      <point x="146.86202566106766" y="1780.0" type="line"/>
      <point x="217.90289824962576" y="1905.0"/>
      <point x="448.75767854565106" y="2097.0"/>
      <point x="550.7576785456511" y="2097.0" type="qcurve" smooth="yes"/>
      <point x="610.7576785456511" y="2097.0"/>
      <point x="714.6441961051055" y="2068.0"/>
      <point x="764.4123485681024" y="2044.0" type="qcurve" smooth="yes"/>
      <point x="809.1805010310993" y="2020.0"/>
      <point x="913.8931329378015" y="1973.0"/>
      <point x="970.8931329378015" y="1973.0" type="qcurve" smooth="yes"/>
      <point x="1029.8931329378015" y="1973.0"/>
      <point x="1141.591116876767" y="2028.0"/>
      <point x="1180.467869124397" y="2067.0" type="qcurve"/>
      <point x="1260.910222233494" y="1854.0" type="line"/>
      <point x="1183.9297528571428" y="1718.0"/>
      <point x="982.3623406544154" y="1573.0"/>
      <point x="880.3623406544154" y="1573.0" type="qcurve" smooth="yes"/>
      <point x="807.3623406544154" y="1573.0"/>
      <point x="679.1786896898386" y="1623.0"/>
      <point x="637.5289023232995" y="1642.0" type="qcurve" smooth="yes"/>
      <point x="591.0554419374688" y="1662.0"/>
      <point x="498.46117512722435" y="1704.0"/>
      <point x="457.46117512722435" y="1704.0" type="qcurve" smooth="yes"/>
      <point x="390.46117512722435" y="1704.0"/>
      <point x="256.82603572842174" y="1621.0"/>
      <point x="224.18357234575086" y="1589.0" type="qcurve"/>
    </contour>
  </outline>
</glyph>
<glyph name="tildecombstack.case" format="2">
  <advance width="1024"/>
  <outline>
    <contour>
      <point x="184.2750828346915" y="1771.0" type="line"/>
      <point x="249.8473776933311" y="1882.0"/>
      <point x="461.82296441377014" y="2052.0"/>
      <point x="557.8229644137701" y="2052.0" type="qcurve" smooth="yes"/>
      <point x="613.8229644137701" y="2052.0"/>
      <point x="710.591116876767" y="2028.0"/>
      <point x="757.5355963204722" y="2005.0" type="qcurve" smooth="yes"/>
      <point x="799.009056706303" y="1985.0"/>
      <point x="897.2506695551306" y="1941.0"/>
      <point x="948.2506695551306" y="1941.0" type="qcurve" smooth="yes"/>
      <point x="1004.2506695551306" y="1941.0"/>
      <point x="1108.2433455712621" y="1992.0"/>
      <point x="1144.4147898960584" y="2027.0" type="qcurve"/>
      <point x="1219.7363365807416" y="1836.0" type="line"/>
      <point x="1149.4007719150175" y="1715.0"/>
      <point x="962.6545914036255" y="1586.0"/>
      <point x="868.6545914036254" y="1586.0" type="qcurve" smooth="yes"/>
      <point x="799.6545914036254" y="1586.0"/>
      <point x="680.412978554798" y="1630.0"/>
      <point x="641.4105372268418" y="1647.0" type="qcurve" smooth="yes"/>
      <point x="598.5844228795942" y="1665.0"/>
      <point x="512.1085211658074" y="1702.0"/>
      <point x="473.10852116580736" y="1702.0" type="qcurve" smooth="yes"/>
      <point x="411.10852116580736" y="1702.0"/>
      <point x="287.060324593381" y="1628.0"/>
      <point x="257.9468421528355" y="1599.0" type="qcurve"/>
    </contour>
  </outline>
</glyph>
